<?xml version="1.0" encoding="utf-8"?>
<!-- Generator: Adobe Illustrator 26.0.0, SVG Export Plug-In . SVG Version: 6.00 Build 0)  -->
<svg version="1.1" id="Capa_1" xmlns="http://www.w3.org/2000/svg" xmlns:xlink="http://www.w3.org/1999/xlink" x="0px" y="0px"
	 viewBox="0 0 1024 1024" style="enable-background:new 0 0 1024 1024;" xml:space="preserve">
<style type="text/css">
	.st0{fill:url(#SVGID_1_);}
	.st1{fill:#F97316;}
	.st2{fill:#FFFFFF;}
</style>
<g>
	<radialGradient id="SVGID_1_" cx="512" cy="512" r="512" gradientUnits="userSpaceOnUse">
		<stop  offset="0" style="stop-color:#00294F"/>
		<stop  offset="1" style="stop-color:#1E293B"/>
	</radialGradient>
	<path class="st0" d="M997.08,1024H26.92C12.05,1024,0,1011.95,0,997.08L0,41.44C0,18.55,18.55,0,41.44,0l955.65,0
		c14.87,0,26.92,12.05,26.92,26.92v970.16C1024,1011.95,1011.95,1024,997.08,1024z"/>
	<path class="st1" d="M713.36,319.32c-7.19,10.06-15.8,15.8-25.85,17.23c-10.06,1.45-19.76-0.35-29.08-5.39
		c-9.34-5.02-15.99-12.2-19.93-21.54c-3.95-9.32-3.06-19.74,2.69-31.24l45.95-106.63c6.46-13.63,15.08-22.43,25.85-26.39
		c10.77-3.94,21.89-4.48,33.39-1.62c11.48,2.88,21.36,8.26,29.62,16.16c8.25,7.91,13.28,17.42,15.08,28.54
		c1.78,11.14-1.26,22.45-9.16,33.93L713.36,319.32z"/>
	<path class="st2" d="M720.52,759.27h-6.75c-2.92,0-5.28-2.36-5.28-5.28V552.47c0-50.25-8.26-91.37-24.77-123.33
		c-16.53-31.94-41.47-55.82-74.86-71.63c-33.39-15.78-75.93-23.69-127.63-23.69c-25.14,0-52.96,2.88-83.47,8.61
		c-30.53,5.76-62.3,15.45-95.32,29.08c-13.65,5.03-23.34,12.76-29.08,23.16c-5.76,10.42-8.62,21-8.62,31.77
		c0,10.77,2.86,20.65,8.62,29.62c5.74,8.99,13.82,14.91,24.23,17.77c10.4,2.88,22.43,1.08,36.08-5.38
		c26.56-12.2,51.87-20.82,75.93-25.85c24.05-5.02,46.48-7.54,67.32-7.54c37.33,0,63.9,7.91,79.7,23.7
		c15.79,15.8,23.7,41.65,23.7,77.55v17.34c0,2.92-2.36,5.28-5.28,5.28h-32.42c-76.12,0-136.79,5.03-182.03,15.08
		c-45.24,10.06-77.92,26.39-98.01,49.01c-20.11,22.62-30.16,53.32-30.16,92.09c0,31.61,8.43,59.96,25.31,85.09
		c16.86,25.14,40.21,45.07,70.01,59.78c29.79,14.71,63.72,22.08,101.78,22.08c28.71,0,54.21-5.03,76.47-15.08
		c22.25-10.05,40.74-24.23,55.47-42.54c4.11-5.12,7.85-10.51,11.2-16.16c2.73-4.61,9.8-2.66,9.8,2.7l0,0v6.87
		c0,35.47,28.75,64.22,64.22,64.22h73.59c33.97,0,61.52-27.54,61.52-61.52l0,0C781.79,786.7,754.36,759.27,720.52,759.27z
		 M564.16,726.95c-10.77,19.39-25.31,34.65-43.62,45.78c-18.31,11.14-39.31,16.7-63.01,16.7c-29.45,0-52.42-7.54-68.93-22.62
		c-16.53-15.08-24.77-34.47-24.77-58.16c0-18.66,5.55-33.2,16.69-43.62c11.12-10.4,29.97-17.77,56.55-22.08
		c26.56-4.31,62.1-6.46,106.63-6.46h31.34c2.92,0,5.28,2.36,5.28,5.28v18.42C580.31,685.32,574.93,707.57,564.16,726.95z"/>
</g>
</svg>
