<?xml version="1.0" encoding="utf-8"?>
<!-- Generator: Adobe Illustrator 26.0.0, SVG Export Plug-In . SVG Version: 6.00 Build 0)  -->
<svg version="1.1" id="Capa_1" xmlns="http://www.w3.org/2000/svg" xmlns:xlink="http://www.w3.org/1999/xlink" x="0px" y="0px"
	 viewBox="0 80 4000 1150" style="enable-background:new 0 0 4000 2250;" xml:space="preserve">
<style type="text/css">
	.st0{fill:url(#SVGID_1_);}
	.st1{fill:#878787;}
	.st2{fill:#F97316;}
	.st3{fill:#9D9D9C;}
	.st4{fill:#1E2B50;}
</style>
<g>
	<radialGradient id="SVGID_1_" cx="2000" cy="1125" r="1622.5944" gradientUnits="userSpaceOnUse">
		<stop  offset="0" style="stop-color:#00294F"/>
		<stop  offset="1" style="stop-color:#1E293B"/>
	</radialGradient>
	<g>
		<path class="st1" d="M1345.06,1400.14c-9.2,0-17.11-1.82-23.73-5.46c-6.63-3.64-11.76-8.8-15.4-15.49
			c-3.64-6.69-5.46-14.69-5.46-24c0-9.07,1.79-16.98,5.37-23.73c3.58-6.74,8.51-12.03,14.78-15.85c6.27-3.82,13.52-5.73,21.76-5.73
			c5.85,0,11.11,0.99,15.76,2.96c4.66,1.97,8.62,4.81,11.91,8.51c3.28,3.7,5.79,8.18,7.52,13.43c1.73,5.25,2.6,11.17,2.6,17.73
			c0,1.91-0.54,3.31-1.61,4.21c-1.07,0.9-2.63,1.34-4.66,1.34h-62.33v-9.49h58.93l-2.87,2.33c0-6.45-0.96-11.91-2.87-16.39
			c-1.91-4.48-4.69-7.91-8.33-10.3c-3.64-2.39-8.21-3.58-13.7-3.58c-6.09,0-11.26,1.41-15.49,4.21c-4.24,2.81-7.43,6.69-9.58,11.64
			c-2.15,4.96-3.22,10.72-3.22,17.28v1.07c0,10.99,2.66,19.34,7.97,25.08c5.31,5.73,12.87,8.6,22.66,8.6
			c4.06,0,8.09-0.54,12.09-1.61c4-1.07,7.91-2.87,11.73-5.37c1.67-1.07,3.19-1.58,4.57-1.52c1.37,0.06,2.48,0.48,3.31,1.25
			c0.84,0.78,1.4,1.73,1.7,2.87c0.3,1.14,0.18,2.36-0.36,3.67c-0.54,1.32-1.58,2.45-3.13,3.4c-3.94,2.87-8.6,5.08-13.97,6.63
			C1355.63,1399.37,1350.31,1400.14,1345.06,1400.14z"/>
		<path class="st2" d="M1348.28,1298.94c-0.84,1.2-1.85,1.88-3.05,2.06c-1.19,0.18-2.33,0-3.4-0.54c-1.08-0.54-1.85-1.34-2.33-2.42
			c-0.48-1.07-0.36-2.33,0.36-3.76l15.05-29.2c0.83-1.67,1.91-2.74,3.22-3.22c1.31-0.48,2.66-0.57,4.03-0.27
			c1.37,0.3,2.53,0.93,3.49,1.88c0.95,0.96,1.52,2.09,1.7,3.4c0.18,1.32-0.21,2.69-1.16,4.12L1348.28,1298.94z"/>
		<path class="st1" d="M1427.63,1400.14c-8.6,0-15.17-2.63-19.7-7.88c-4.54-5.25-6.81-12.78-6.81-22.57v-91.35
			c0-2.39,0.6-4.21,1.79-5.46c1.19-1.25,2.98-1.88,5.37-1.88c2.27,0,4.06,0.63,5.37,1.88c1.31,1.25,1.97,3.08,1.97,5.46v90.27
			c0,6.45,1.28,11.26,3.85,14.42c2.57,3.16,6.36,4.75,11.37,4.75c1.07,0,2.03-0.06,2.87-0.18c0.83-0.12,1.67-0.18,2.51-0.18
			c1.31-0.12,2.24,0.18,2.78,0.9c0.54,0.72,0.81,2.15,0.81,4.3s-0.48,3.76-1.43,4.84c-0.96,1.07-2.51,1.79-4.66,2.15
			c-0.96,0.12-1.97,0.24-3.05,0.36C1429.6,1400.08,1428.59,1400.14,1427.63,1400.14z"/>
		<path class="st1" d="M1507.7,1399.79c-2.39,0-4.21-0.66-5.46-1.97c-1.25-1.31-1.88-3.16-1.88-5.55v-74.69
			c0-2.39,0.6-4.21,1.79-5.46c1.19-1.25,2.92-1.88,5.19-1.88c2.27,0,4.03,0.63,5.28,1.88c1.25,1.26,1.88,3.08,1.88,5.46v14.51h-1.79
			c1.91-7.04,5.55-12.48,10.93-16.3c5.37-3.82,12-5.85,19.88-6.09c1.79-0.12,3.22,0.27,4.3,1.16c1.07,0.9,1.67,2.42,1.79,4.57
			c0.12,2.03-0.36,3.64-1.43,4.84c-1.07,1.2-2.75,1.91-5.02,2.15l-2.87,0.36c-8.12,0.72-14.36,3.31-18.72,7.79
			c-4.36,4.48-6.54,10.6-6.54,18.36v43.35c0,2.39-0.63,4.24-1.88,5.55C1511.91,1399.13,1510.09,1399.79,1507.7,1399.79z"/>
		<path class="st1" d="M1602.81,1400.14c-9.2,0-17.11-1.82-23.73-5.46c-6.63-3.64-11.76-8.8-15.4-15.49
			c-3.64-6.69-5.46-14.69-5.46-24c0-9.07,1.79-16.98,5.37-23.73c3.58-6.74,8.51-12.03,14.78-15.85c6.27-3.82,13.52-5.73,21.76-5.73
			c5.85,0,11.11,0.99,15.76,2.96c4.66,1.97,8.63,4.81,11.91,8.51c3.28,3.7,5.79,8.18,7.52,13.43c1.73,5.25,2.6,11.17,2.6,17.73
			c0,1.91-0.54,3.31-1.61,4.21c-1.07,0.9-2.63,1.34-4.66,1.34h-62.33v-9.49h58.93l-2.87,2.33c0-6.45-0.96-11.91-2.87-16.39
			c-1.91-4.48-4.69-7.91-8.33-10.3c-3.64-2.39-8.21-3.58-13.7-3.58c-6.09,0-11.26,1.41-15.49,4.21c-4.24,2.81-7.43,6.69-9.58,11.64
			c-2.15,4.96-3.22,10.72-3.22,17.28v1.07c0,10.99,2.66,19.34,7.97,25.08c5.31,5.73,12.87,8.6,22.66,8.6
			c4.06,0,8.09-0.54,12.09-1.61c4-1.07,7.91-2.87,11.73-5.37c1.67-1.07,3.19-1.58,4.57-1.52c1.37,0.06,2.48,0.48,3.31,1.25
			c0.84,0.78,1.4,1.73,1.7,2.87c0.3,1.14,0.18,2.36-0.36,3.67c-0.54,1.32-1.58,2.45-3.13,3.4c-3.94,2.87-8.6,5.08-13.97,6.63
			C1613.38,1399.37,1608.06,1400.14,1602.81,1400.14z"/>
		<path class="st1" d="M1697.38,1432.38c-6.33,0-12.51-0.75-18.54-2.24c-6.03-1.49-11.49-3.85-16.39-7.07
			c-1.43-0.84-2.36-1.85-2.78-3.05c-0.42-1.2-0.51-2.36-0.27-3.49c0.24-1.14,0.77-2.15,1.61-3.05c0.84-0.9,1.82-1.46,2.96-1.7
			c1.13-0.24,2.3-0.06,3.49,0.54c5.25,3.22,10.27,5.43,15.05,6.63c4.78,1.19,9.49,1.79,14.15,1.79c8.48,0,14.89-2.27,19.25-6.81
			c4.36-4.54,6.54-11.11,6.54-19.7v-20.24h1.79c-1.79,6.93-5.58,12.42-11.37,16.48c-5.79,4.06-12.57,6.09-20.33,6.09
			c-8,0-14.93-1.82-20.78-5.46c-5.85-3.64-10.36-8.75-13.52-15.31c-3.17-6.57-4.75-14.15-4.75-22.75c0-6.45,0.9-12.33,2.69-17.64
			c1.79-5.31,4.39-9.85,7.79-13.61c3.4-3.76,7.52-6.69,12.36-8.78c4.84-2.09,10.24-3.14,16.21-3.14c7.88,0,14.69,2,20.42,6
			c5.73,4,9.43,9.4,11.1,16.21l-1.79,2.15v-16.66c0-2.39,0.63-4.21,1.88-5.46c1.25-1.25,3.01-1.88,5.28-1.88
			c2.39,0,4.18,0.63,5.37,1.88c1.19,1.26,1.79,3.08,1.79,5.46v74.69c0,13.25-3.31,23.25-9.94,30
			C1720.04,1429.01,1710.28,1432.38,1697.38,1432.38z M1695.23,1384.74c5.61,0,10.45-1.28,14.51-3.85c4.06-2.57,7.19-6.24,9.4-11.02
			c2.21-4.77,3.31-10.39,3.31-16.84c0-9.67-2.45-17.34-7.34-23.02c-4.9-5.67-11.52-8.51-19.88-8.51c-5.49,0-10.27,1.28-14.33,3.85
			c-4.06,2.57-7.19,6.21-9.4,10.93c-2.21,4.72-3.31,10.3-3.31,16.75c0,9.67,2.45,17.38,7.34,23.11
			C1680.42,1381.87,1686.99,1384.74,1695.23,1384.74z"/>
		<path class="st1" d="M1791.24,1400.14c-5.97,0-11.32-1.16-16.03-3.49c-4.72-2.33-8.45-5.52-11.19-9.58
			c-2.75-4.06-4.12-8.6-4.12-13.61c0-6.45,1.64-11.52,4.93-15.23c3.28-3.7,8.72-6.33,16.3-7.88c7.58-1.55,17.94-2.33,31.08-2.33
			h8.06v9.49h-7.88c-9.67,0-17.29,0.45-22.84,1.34s-9.43,2.42-11.64,4.57c-2.21,2.15-3.31,5.19-3.31,9.13c0,4.9,1.7,8.9,5.1,12
			c3.4,3.11,8.03,4.66,13.88,4.66c4.77,0,8.98-1.13,12.63-3.4c3.64-2.27,6.51-5.37,8.6-9.31c2.09-3.94,3.14-8.48,3.14-13.61v-20.42
			c0-7.4-1.5-12.75-4.48-16.03c-2.99-3.28-7.88-4.93-14.69-4.93c-4.18,0-8.36,0.54-12.54,1.61c-4.18,1.07-8.6,2.81-13.25,5.19
			c-1.67,0.84-3.11,1.1-4.3,0.81c-1.2-0.3-2.15-0.92-2.87-1.88c-0.72-0.95-1.14-2.06-1.26-3.31c-0.12-1.25,0.15-2.48,0.81-3.67
			c0.66-1.19,1.7-2.15,3.14-2.87c5.25-2.63,10.45-4.54,15.58-5.73c5.13-1.19,10.03-1.79,14.69-1.79c7.52,0,13.73,1.23,18.63,3.67
			c4.89,2.45,8.54,6.15,10.93,11.11c2.39,4.96,3.58,11.32,3.58,19.08v48.54c0,2.39-0.57,4.24-1.7,5.55
			c-1.14,1.31-2.78,1.97-4.93,1.97c-2.27,0-4-0.66-5.2-1.97c-1.2-1.31-1.79-3.16-1.79-5.55v-13.97h1.61
			c-0.96,4.54-2.78,8.42-5.46,11.64c-2.69,3.22-6,5.73-9.94,7.52C1800.55,1399.25,1796.13,1400.14,1791.24,1400.14z"/>
		<path class="st1" d="M1885.27,1400.14c-8.6,0-15.17-2.63-19.7-7.88c-4.54-5.25-6.81-12.78-6.81-22.57v-91.35
			c0-2.39,0.6-4.21,1.79-5.46c1.19-1.25,2.98-1.88,5.37-1.88c2.27,0,4.06,0.63,5.37,1.88c1.31,1.25,1.97,3.08,1.97,5.46v90.27
			c0,6.45,1.28,11.26,3.85,14.42c2.57,3.16,6.36,4.75,11.37,4.75c1.07,0,2.03-0.06,2.87-0.18c0.83-0.12,1.67-0.18,2.51-0.18
			c1.31-0.12,2.24,0.18,2.78,0.9c0.54,0.72,0.81,2.15,0.81,4.3s-0.48,3.76-1.43,4.84c-0.96,1.07-2.51,1.79-4.66,2.15
			c-0.96,0.12-1.97,0.24-3.05,0.36C1887.25,1400.08,1886.23,1400.14,1885.27,1400.14z"/>
		<path class="st1" d="M1947.07,1400.14c-8.48,0-15.82-1.85-22.03-5.55c-6.21-3.7-11.02-8.93-14.42-15.67
			c-3.4-6.75-5.11-14.72-5.11-23.91c0-6.92,0.95-13.17,2.87-18.72c1.91-5.55,4.72-10.3,8.42-14.24c3.7-3.94,8.09-6.95,13.17-9.04
			c5.07-2.09,10.78-3.14,17.11-3.14c8.48,0,15.82,1.85,22.03,5.55c6.21,3.7,11.02,8.93,14.42,15.67c3.4,6.75,5.1,14.72,5.1,23.91
			c0,6.93-0.96,13.14-2.87,18.63c-1.91,5.49-4.72,10.24-8.42,14.24c-3.7,4-8.09,7.05-13.16,9.14
			C1959.1,1399.1,1953.4,1400.14,1947.07,1400.14z M1947.07,1388.5c5.37,0,10.09-1.31,14.15-3.94c4.06-2.63,7.19-6.45,9.4-11.46
			c2.21-5.02,3.31-11.04,3.31-18.09c0-10.86-2.42-19.17-7.25-24.9s-11.37-8.6-19.61-8.6c-5.49,0-10.24,1.28-14.24,3.85
			c-4,2.57-7.11,6.33-9.31,11.28c-2.21,4.96-3.31,11.08-3.31,18.36c0,10.75,2.45,19.02,7.34,24.81
			C1932.44,1385.61,1938.95,1388.5,1947.07,1388.5z"/>
		<path class="st1" d="M2063.86,1432.03c-2.39,0-4.18-0.63-5.37-1.88c-1.2-1.25-1.79-3.08-1.79-5.46v-107.11
			c0-2.39,0.6-4.21,1.79-5.46c1.19-1.25,2.92-1.88,5.19-1.88c2.39,0,4.21,0.63,5.46,1.88c1.25,1.26,1.88,3.08,1.88,5.46v17.02
			l-1.97-2.51c1.91-6.81,5.7-12.21,11.37-16.21c5.67-4,12.45-6,20.33-6c7.76,0,14.54,1.82,20.33,5.46
			c5.79,3.64,10.27,8.84,13.43,15.58c3.16,6.75,4.75,14.78,4.75,24.09c0,9.2-1.58,17.17-4.75,23.91
			c-3.17,6.75-7.61,11.97-13.34,15.67c-5.73,3.7-12.54,5.55-20.42,5.55c-7.88,0-14.63-2-20.24-6c-5.61-4-9.43-9.34-11.46-16.03h2.15
			v46.57c0,2.39-0.66,4.21-1.97,5.46C2067.91,1431.4,2066.12,1432.03,2063.86,1432.03z M2097.71,1388.5
			c5.49,0,10.24-1.31,14.24-3.94c4-2.63,7.1-6.45,9.31-11.46c2.21-5.02,3.31-11.04,3.31-18.09c0-10.86-2.42-19.17-7.25-24.9
			c-4.84-5.73-11.38-8.6-19.61-8.6c-5.37,0-10.09,1.28-14.15,3.85c-4.06,2.57-7.2,6.33-9.4,11.28c-2.21,4.96-3.31,11.08-3.31,18.36
			c0,10.75,2.45,19.02,7.34,24.81C2083.08,1385.61,2089.59,1388.5,2097.71,1388.5z"/>
		<path class="st1" d="M2200.34,1400.14c-9.2,0-17.11-1.82-23.73-5.46c-6.63-3.64-11.76-8.8-15.4-15.49
			c-3.64-6.69-5.46-14.69-5.46-24c0-9.07,1.79-16.98,5.37-23.73c3.58-6.74,8.51-12.03,14.78-15.85c6.27-3.82,13.52-5.73,21.76-5.73
			c5.85,0,11.1,0.99,15.76,2.96c4.66,1.97,8.62,4.81,11.91,8.51c3.29,3.7,5.79,8.18,7.52,13.43c1.73,5.25,2.6,11.17,2.6,17.73
			c0,1.91-0.54,3.31-1.61,4.21c-1.08,0.9-2.63,1.34-4.66,1.34h-62.33v-9.49h58.93l-2.87,2.33c0-6.45-0.96-11.91-2.87-16.39
			c-1.91-4.48-4.69-7.91-8.33-10.3c-3.64-2.39-8.21-3.58-13.7-3.58c-6.09,0-11.26,1.41-15.49,4.21c-4.24,2.81-7.43,6.69-9.58,11.64
			c-2.15,4.96-3.22,10.72-3.22,17.28v1.07c0,10.99,2.66,19.34,7.97,25.08c5.31,5.73,12.87,8.6,22.66,8.6
			c4.06,0,8.09-0.54,12.09-1.61c4-1.07,7.91-2.87,11.73-5.37c1.67-1.07,3.19-1.58,4.57-1.52c1.37,0.06,2.48,0.48,3.31,1.25
			c0.84,0.78,1.4,1.73,1.7,2.87c0.3,1.14,0.18,2.36-0.36,3.67c-0.54,1.32-1.58,2.45-3.13,3.4c-3.94,2.87-8.6,5.08-13.97,6.63
			C2210.91,1399.37,2205.59,1400.14,2200.34,1400.14z"/>
		<path class="st1" d="M2263.75,1399.79c-2.39,0-4.21-0.66-5.46-1.97c-1.25-1.31-1.88-3.16-1.88-5.55v-74.69
			c0-2.39,0.6-4.21,1.79-5.46c1.19-1.25,2.92-1.88,5.19-1.88s4.03,0.63,5.29,1.88c1.25,1.26,1.88,3.08,1.88,5.46v14.51h-1.79
			c1.91-7.04,5.55-12.48,10.92-16.3c5.38-3.82,12-5.85,19.88-6.09c1.79-0.12,3.22,0.27,4.3,1.16c1.07,0.9,1.67,2.42,1.79,4.57
			c0.12,2.03-0.36,3.64-1.43,4.84c-1.08,1.2-2.75,1.91-5.02,2.15l-2.87,0.36c-8.12,0.72-14.36,3.31-18.72,7.79
			c-4.36,4.48-6.54,10.6-6.54,18.36v43.35c0,2.39-0.63,4.24-1.88,5.55C2267.96,1399.13,2266.14,1399.79,2263.75,1399.79z"/>
		<path class="st1" d="M2336.83,1399.79c-2.27,0-4.03-0.66-5.29-1.97c-1.25-1.31-1.88-3.16-1.88-5.55v-69.5h-11.46
			c-1.91,0-3.43-0.51-4.57-1.52c-1.14-1.01-1.7-2.42-1.7-4.21c0-1.79,0.56-3.16,1.7-4.12c1.13-0.95,2.66-1.43,4.57-1.43h15.4
			l-3.94,3.76v-6.81c0-11.34,2.78-20,8.33-25.97c5.55-5.97,13.7-9.43,24.45-10.39l5.19-0.54c1.67-0.12,3.01,0.18,4.03,0.9
			c1.01,0.72,1.67,1.61,1.97,2.69c0.29,1.07,0.33,2.18,0.09,3.31c-0.24,1.14-0.78,2.12-1.61,2.95c-0.84,0.84-1.85,1.32-3.04,1.43
			l-4.12,0.36c-7.29,0.6-12.57,2.81-15.85,6.63c-3.29,3.82-4.92,9.43-4.92,16.84v7.52l-2.15-2.69h21.49c2.03,0,3.58,0.48,4.66,1.43
			c1.07,0.96,1.61,2.33,1.61,4.12c0,1.79-0.54,3.2-1.61,4.21c-1.08,1.02-2.63,1.52-4.66,1.52h-19.34v69.5
			C2344.17,1397.28,2341.72,1399.79,2336.83,1399.79z"/>
		<path class="st1" d="M2421.19,1400.14c-9.2,0-17.11-1.82-23.73-5.46c-6.63-3.64-11.76-8.8-15.4-15.49
			c-3.64-6.69-5.46-14.69-5.46-24c0-9.07,1.79-16.98,5.37-23.73c3.58-6.74,8.51-12.03,14.78-15.85c6.27-3.82,13.52-5.73,21.76-5.73
			c5.85,0,11.1,0.99,15.76,2.96c4.66,1.97,8.62,4.81,11.91,8.51c3.29,3.7,5.79,8.18,7.52,13.43c1.73,5.25,2.6,11.17,2.6,17.73
			c0,1.91-0.54,3.31-1.61,4.21c-1.08,0.9-2.63,1.34-4.66,1.34h-62.33v-9.49h58.93l-2.87,2.33c0-6.45-0.96-11.91-2.87-16.39
			c-1.91-4.48-4.69-7.91-8.33-10.3c-3.64-2.39-8.21-3.58-13.7-3.58c-6.09,0-11.26,1.41-15.5,4.21c-4.24,2.81-7.43,6.69-9.58,11.64
			c-2.15,4.96-3.22,10.72-3.22,17.28v1.07c0,10.99,2.66,19.34,7.97,25.08c5.31,5.73,12.87,8.6,22.66,8.6
			c4.06,0,8.09-0.54,12.09-1.61c4-1.07,7.91-2.87,11.73-5.37c1.67-1.07,3.19-1.58,4.57-1.52c1.37,0.06,2.48,0.48,3.31,1.25
			c0.84,0.78,1.4,1.73,1.7,2.87c0.3,1.14,0.18,2.36-0.36,3.67c-0.54,1.32-1.58,2.45-3.13,3.4c-3.94,2.87-8.6,5.08-13.97,6.63
			C2431.76,1399.37,2426.44,1400.14,2421.19,1400.14z"/>
		<path class="st1" d="M2514.15,1400.14c-8.72,0-16.24-1.91-22.57-5.73c-6.33-3.82-11.19-9.16-14.6-16.03
			c-3.4-6.87-5.1-14.84-5.1-23.91c0-6.93,0.95-13.14,2.87-18.63c1.91-5.49,4.72-10.18,8.42-14.06c3.7-3.88,8.15-6.83,13.34-8.87
			c5.2-2.03,11.08-3.05,17.64-3.05c4.3,0,8.78,0.66,13.43,1.97c4.66,1.31,8.89,3.58,12.72,6.81c1.19,0.84,1.97,1.85,2.33,3.04
			c0.36,1.2,0.36,2.36,0,3.49c-0.36,1.14-0.96,2.09-1.79,2.87c-0.84,0.78-1.88,1.23-3.13,1.34c-1.25,0.12-2.54-0.3-3.85-1.25
			c-3.1-2.39-6.27-4.06-9.49-5.01c-3.22-0.95-6.33-1.43-9.31-1.43c-4.66,0-8.72,0.75-12.18,2.24c-3.46,1.5-6.39,3.61-8.78,6.36
			c-2.39,2.75-4.21,6.15-5.46,10.21c-1.25,4.06-1.88,8.78-1.88,14.15c0,10.39,2.45,18.6,7.34,24.63c4.89,6.03,11.88,9.05,20.96,9.05
			c2.98,0,6.06-0.48,9.22-1.43c3.16-0.95,6.36-2.63,9.58-5.02c1.31-0.95,2.57-1.37,3.76-1.25c1.19,0.12,2.21,0.57,3.05,1.34
			c0.83,0.78,1.4,1.76,1.7,2.95c0.29,1.2,0.27,2.36-0.09,3.49c-0.36,1.14-1.14,2.12-2.33,2.96c-3.82,3.11-8,5.35-12.54,6.72
			C2522.87,1399.46,2518.45,1400.14,2514.15,1400.14z"/>
		<path class="st1" d="M2594.93,1400.14c-6.8,0-12.51-1.23-17.1-3.67c-4.6-2.45-8.03-6.03-10.3-10.75
			c-2.27-4.72-3.4-10.48-3.4-17.28v-45.67h-12c-2.03,0-3.58-0.51-4.66-1.52c-1.08-1.01-1.61-2.42-1.61-4.21
			c0-1.79,0.54-3.16,1.61-4.12c1.08-0.95,2.62-1.43,4.66-1.43h12v-20.6c0-2.39,0.65-4.21,1.97-5.46c1.31-1.25,3.1-1.88,5.37-1.88
			c2.27,0,4.03,0.63,5.28,1.88c1.25,1.25,1.88,3.08,1.88,5.46v20.6h22.57c2.03,0,3.58,0.48,4.66,1.43c1.08,0.96,1.61,2.33,1.61,4.12
			c0,1.79-0.54,3.2-1.61,4.21c-1.07,1.02-2.63,1.52-4.66,1.52h-22.57v44.24c0,6.81,1.43,11.97,4.3,15.49
			c2.87,3.52,7.52,5.28,13.97,5.28c2.27,0,4.21-0.24,5.82-0.72c1.61-0.48,2.96-0.72,4.03-0.72c1.07-0.12,1.97,0.24,2.69,1.07
			c0.72,0.84,1.08,2.27,1.08,4.3c0,1.43-0.27,2.75-0.81,3.94c-0.54,1.2-1.46,2.03-2.78,2.51c-1.43,0.48-3.31,0.92-5.64,1.34
			C2598.96,1399.93,2596.84,1400.14,2594.93,1400.14z"/>
		<path class="st1" d="M2657.99,1400.14c-8.48,0-15.82-1.85-22.03-5.55c-6.21-3.7-11.01-8.93-14.42-15.67
			c-3.41-6.75-5.11-14.72-5.11-23.91c0-6.92,0.96-13.17,2.87-18.72c1.91-5.55,4.71-10.3,8.42-14.24c3.7-3.94,8.09-6.95,13.17-9.04
			c5.08-2.09,10.78-3.14,17.11-3.14c8.47,0,15.82,1.85,22.03,5.55c6.21,3.7,11.01,8.93,14.42,15.67c3.4,6.75,5.1,14.72,5.1,23.91
			c0,6.93-0.96,13.14-2.87,18.63c-1.91,5.49-4.72,10.24-8.42,14.24c-3.7,4-8.09,7.05-13.17,9.14
			C2670.01,1399.1,2664.31,1400.14,2657.99,1400.14z M2657.99,1388.5c5.37,0,10.09-1.31,14.15-3.94c4.06-2.63,7.19-6.45,9.4-11.46
			c2.21-5.02,3.31-11.04,3.31-18.09c0-10.86-2.42-19.17-7.26-24.9c-4.84-5.73-11.37-8.6-19.61-8.6c-5.5,0-10.24,1.28-14.24,3.85
			c-4,2.57-7.1,6.33-9.31,11.28c-2.21,4.96-3.31,11.08-3.31,18.36c0,10.75,2.45,19.02,7.34,24.81
			C2643.36,1385.61,2649.86,1388.5,2657.99,1388.5z"/>
	</g>
	<g>
		<path class="st2" d="M1390.32,1668.8c-4.29,0-8.05-0.7-11.29-2.09c-3.24-1.39-5.77-3.37-7.62-5.93c-1.84-2.56-2.76-5.49-2.76-8.8
			c0-3.23,0.73-6.28,2.2-9.14s4.19-6.17,8.18-9.93c2.41-2.26,4.31-4.31,5.7-6.15c1.39-1.84,2.44-3.65,3.16-5.42
			c0.71-1.77,1.18-3.63,1.41-5.59c0.07-0.9,0.38-1.62,0.9-2.15c0.53-0.52,1.24-0.79,2.14-0.79c0.98,0,1.73,0.3,2.26,0.9
			c0.53,0.6,0.79,1.47,0.79,2.6c0,2.33-0.28,4.55-0.85,6.66c-0.56,2.11-1.54,4.25-2.93,6.43c-1.39,2.18-3.33,4.55-5.81,7.11
			c-3.01,3.01-5.06,5.59-6.15,7.73c-1.09,2.14-1.64,4.31-1.64,6.49c0,3.01,1.13,5.4,3.39,7.17c2.26,1.77,5.38,2.65,9.37,2.65
			c3.46,0,6.7-0.47,9.71-1.41c3.01-0.94,5.87-2.43,8.58-4.46c1.13-0.75,2.16-1.13,3.1-1.13c0.94,0,1.73,0.28,2.37,0.85
			c0.64,0.56,1.03,1.26,1.18,2.09c0.15,0.83,0.02,1.69-0.4,2.6c-0.41,0.9-1.15,1.73-2.2,2.48c-2.93,2.11-6.34,3.84-10.21,5.19
			C1399.03,1668.12,1394.84,1668.8,1390.32,1668.8z M1392.47,1604.59c-1.81,0-3.29-0.58-4.46-1.75c-1.17-1.17-1.75-2.65-1.75-4.46
			s0.58-3.29,1.75-4.46c1.17-1.17,2.65-1.75,4.46-1.75c1.96,0,3.48,0.58,4.57,1.75c1.09,1.17,1.64,2.65,1.64,4.46
			s-0.55,3.29-1.64,4.46C1395.95,1604,1394.42,1604.59,1392.47,1604.59z"/>
		<path class="st2" d="M1430.16,1648.26c-1.43,0-2.52-0.4-3.27-1.19c-0.75-0.79-1.13-1.94-1.13-3.44v-71.77
			c0-1.5,0.38-2.67,1.13-3.5c0.75-0.83,1.73-1.24,2.93-1.24c1.2,0,2.09,0.21,2.65,0.62c0.56,0.42,1.22,1.15,1.97,2.2l49.2,65.57
			h-2.71v-63.87c0-1.43,0.38-2.54,1.13-3.33c0.75-0.79,1.84-1.19,3.27-1.19c1.35,0,2.39,0.4,3.1,1.19c0.71,0.79,1.07,1.9,1.07,3.33
			v72.11c0,1.43-0.32,2.54-0.96,3.33c-0.64,0.79-1.56,1.19-2.76,1.19c-1.13,0-2.03-0.23-2.71-0.68c-0.68-0.45-1.39-1.17-2.14-2.14
			l-49.09-65.57h2.6v63.76c0,1.51-0.38,2.65-1.13,3.44C1432.57,1647.87,1431.51,1648.26,1430.16,1648.26z"/>
		<path class="st2" d="M1530.82,1648.49c-5.34,0-9.97-1.17-13.88-3.5c-3.91-2.33-6.94-5.62-9.08-9.87
			c-2.14-4.25-3.22-9.27-3.22-15.07c0-4.36,0.6-8.29,1.81-11.79c1.2-3.5,2.97-6.49,5.3-8.97c2.33-2.48,5.1-4.38,8.29-5.7
			c3.2-1.32,6.79-1.98,10.78-1.98c5.34,0,9.97,1.17,13.88,3.5c3.91,2.33,6.94,5.62,9.08,9.87c2.14,4.25,3.22,9.27,3.22,15.07
			c0,4.36-0.6,8.28-1.81,11.74c-1.2,3.46-2.97,6.45-5.3,8.97c-2.33,2.52-5.1,4.44-8.29,5.76
			C1538.4,1647.83,1534.81,1648.49,1530.82,1648.49z M1530.82,1641.15c3.39,0,6.36-0.83,8.92-2.48c2.56-1.65,4.53-4.06,5.92-7.22
			c1.39-3.16,2.09-6.96,2.09-11.4c0-6.85-1.52-12.08-4.57-15.69c-3.05-3.61-7.17-5.42-12.36-5.42c-3.46,0-6.45,0.81-8.97,2.43
			c-2.52,1.62-4.48,3.99-5.87,7.11c-1.39,3.12-2.09,6.98-2.09,11.57c0,6.77,1.54,11.98,4.63,15.63
			C1521.61,1639.33,1525.71,1641.15,1530.82,1641.15z"/>
		<path class="st2" d="M1618.4,1648.49c-3.39,0-6.79-0.42-10.21-1.24c-3.42-0.83-6.6-2.26-9.54-4.29c-0.75-0.53-1.28-1.15-1.58-1.86
			c-0.3-0.71-0.4-1.43-0.28-2.14c0.11-0.71,0.41-1.34,0.9-1.86c0.49-0.53,1.09-0.85,1.81-0.96c0.71-0.11,1.52,0.06,2.43,0.51
			c2.93,1.81,5.77,3.07,8.52,3.78c2.75,0.72,5.47,1.07,8.18,1.07c4.29,0,7.52-0.79,9.71-2.37c2.18-1.58,3.27-3.72,3.27-6.43
			c0-2.1-0.72-3.78-2.14-5.02c-1.43-1.24-3.69-2.2-6.77-2.88l-10.27-2.26c-4.74-0.98-8.26-2.67-10.55-5.08
			c-2.3-2.41-3.44-5.53-3.44-9.37c0-3.38,0.88-6.3,2.65-8.74c1.77-2.44,4.27-4.35,7.5-5.7c3.23-1.35,7-2.03,11.29-2.03
			c3.31,0,6.45,0.43,9.42,1.3c2.97,0.87,5.66,2.24,8.07,4.12c0.75,0.53,1.26,1.15,1.52,1.86c0.26,0.72,0.3,1.43,0.11,2.14
			c-0.19,0.72-0.55,1.32-1.07,1.81c-0.53,0.49-1.17,0.77-1.92,0.85c-0.75,0.08-1.54-0.15-2.37-0.68c-2.26-1.5-4.55-2.61-6.88-3.33
			c-2.33-0.71-4.63-1.07-6.88-1.07c-4.21,0-7.41,0.83-9.59,2.48c-2.18,1.66-3.27,3.84-3.27,6.55c0,2.11,0.68,3.84,2.03,5.19
			c1.35,1.35,3.46,2.33,6.32,2.93l10.27,2.14c4.89,1.05,8.56,2.73,11,5.02c2.44,2.3,3.67,5.4,3.67,9.31c0,4.97-1.99,8.91-5.98,11.85
			C1630.32,1647.02,1625.02,1648.49,1618.4,1648.49z"/>
		<path class="st2" d="M1671.44,1648.49c-3.76,0-7.13-0.73-10.1-2.2c-2.97-1.47-5.32-3.48-7.05-6.04c-1.73-2.56-2.6-5.42-2.6-8.58
			c0-4.06,1.03-7.26,3.1-9.59c2.07-2.33,5.49-3.99,10.27-4.97c4.78-0.98,11.3-1.47,19.58-1.47h5.08v5.98h-4.97
			c-6.09,0-10.89,0.28-14.39,0.85c-3.5,0.56-5.94,1.52-7.34,2.88c-1.39,1.35-2.09,3.27-2.09,5.76c0,3.09,1.07,5.61,3.22,7.56
			c2.14,1.96,5.06,2.93,8.75,2.93c3.01,0,5.66-0.71,7.96-2.14c2.29-1.43,4.1-3.39,5.42-5.87c1.32-2.48,1.98-5.34,1.98-8.58v-12.86
			c0-4.66-0.94-8.03-2.82-10.1c-1.88-2.07-4.97-3.1-9.25-3.1c-2.63,0-5.27,0.34-7.9,1.01c-2.63,0.68-5.42,1.77-8.35,3.27
			c-1.06,0.53-1.96,0.7-2.71,0.51c-0.75-0.19-1.35-0.58-1.81-1.19c-0.45-0.6-0.72-1.3-0.79-2.09c-0.08-0.79,0.09-1.56,0.51-2.31
			c0.41-0.75,1.07-1.35,1.98-1.81c3.31-1.65,6.58-2.86,9.82-3.61c3.23-0.75,6.32-1.13,9.25-1.13c4.74,0,8.65,0.77,11.74,2.31
			c3.08,1.54,5.38,3.88,6.88,7c1.5,3.12,2.26,7.13,2.26,12.02v30.58c0,1.51-0.36,2.67-1.07,3.5c-0.72,0.83-1.75,1.24-3.1,1.24
			c-1.43,0-2.52-0.42-3.27-1.24c-0.75-0.83-1.13-1.99-1.13-3.5v-8.8h1.02c-0.6,2.86-1.75,5.3-3.44,7.33
			c-1.69,2.03-3.78,3.61-6.26,4.74C1677.3,1647.92,1674.52,1648.49,1671.44,1648.49z"/>
		<path class="st2" d="M1741.74,1648.49c-4.97,0-9.24-1.28-12.81-3.84c-3.57-2.56-5.96-5.98-7.17-10.27l1.24-1.24v10.38
			c0,1.51-0.4,2.67-1.18,3.5s-1.9,1.24-3.33,1.24c-1.51,0-2.63-0.42-3.39-1.24c-0.75-0.83-1.13-1.99-1.13-3.5v-71.77
			c0-1.5,0.38-2.65,1.13-3.44c0.75-0.79,1.88-1.19,3.39-1.19c1.43,0,2.56,0.4,3.39,1.19c0.83,0.79,1.24,1.94,1.24,3.44v33.63h-1.35
			c1.28-4.21,3.69-7.56,7.22-10.04c3.54-2.48,7.79-3.72,12.75-3.72c4.97,0,9.25,1.15,12.87,3.44c3.61,2.3,6.41,5.57,8.41,9.82
			c1.99,4.25,2.99,9.31,2.99,15.18c0,5.79-1,10.82-2.99,15.07c-1.99,4.25-4.82,7.54-8.46,9.87
			C1750.9,1647.32,1746.63,1648.49,1741.74,1648.49z M1739.82,1641.15c3.46,0,6.45-0.83,8.97-2.48c2.52-1.65,4.48-4.06,5.87-7.22
			c1.39-3.16,2.09-6.96,2.09-11.4c0-6.85-1.52-12.08-4.57-15.69c-3.05-3.61-7.17-5.42-12.36-5.42c-3.39,0-6.36,0.81-8.92,2.43
			c-2.56,1.62-4.53,3.99-5.92,7.11c-1.39,3.12-2.09,6.98-2.09,11.57c0,6.77,1.54,11.98,4.63,15.63
			C1730.61,1639.33,1734.71,1641.15,1739.82,1641.15z"/>
		<path class="st2" d="M1804.49,1648.49c-5.79,0-10.78-1.15-14.95-3.44c-4.18-2.29-7.41-5.55-9.71-9.76
			c-2.3-4.21-3.44-9.25-3.44-15.12c0-5.72,1.13-10.7,3.39-14.95c2.26-4.25,5.36-7.58,9.31-9.99c3.95-2.41,8.52-3.61,13.71-3.61
			c3.69,0,7,0.62,9.93,1.86c2.93,1.24,5.43,3.03,7.5,5.36c2.07,2.33,3.65,5.15,4.74,8.46c1.09,3.31,1.64,7.04,1.64,11.17
			c0,1.2-0.34,2.09-1.02,2.65c-0.68,0.56-1.66,0.85-2.93,0.85h-39.27v-5.98h37.13l-1.81,1.47c0-4.06-0.6-7.5-1.81-10.33
			c-1.2-2.82-2.95-4.98-5.25-6.49c-2.3-1.5-5.17-2.26-8.63-2.26c-3.84,0-7.09,0.89-9.76,2.65c-2.67,1.77-4.68,4.21-6.04,7.33
			c-1.35,3.12-2.03,6.75-2.03,10.89v0.68c0,6.92,1.67,12.19,5.02,15.8c3.35,3.61,8.11,5.42,14.28,5.42c2.56,0,5.1-0.34,7.62-1.01
			c2.52-0.68,4.98-1.81,7.39-3.39c1.05-0.68,2.01-1,2.88-0.96c0.86,0.04,1.56,0.3,2.09,0.79c0.53,0.49,0.88,1.09,1.07,1.81
			c0.19,0.72,0.11,1.49-0.23,2.31c-0.34,0.83-1,1.54-1.98,2.15c-2.48,1.81-5.42,3.2-8.8,4.17
			C1811.15,1647.99,1807.8,1648.49,1804.49,1648.49z"/>
		<path class="st2" d="M1858.32,1648.49c-3.39,0-6.79-0.42-10.21-1.24c-3.42-0.83-6.6-2.26-9.54-4.29
			c-0.75-0.53-1.28-1.15-1.58-1.86c-0.3-0.71-0.4-1.43-0.28-2.14c0.11-0.71,0.41-1.34,0.9-1.86c0.49-0.53,1.09-0.85,1.81-0.96
			c0.71-0.11,1.52,0.06,2.43,0.51c2.93,1.81,5.77,3.07,8.52,3.78c2.75,0.72,5.47,1.07,8.18,1.07c4.29,0,7.52-0.79,9.71-2.37
			c2.18-1.58,3.27-3.72,3.27-6.43c0-2.1-0.72-3.78-2.14-5.02c-1.43-1.24-3.69-2.2-6.77-2.88l-10.27-2.26
			c-4.74-0.98-8.26-2.67-10.55-5.08c-2.3-2.41-3.44-5.53-3.44-9.37c0-3.38,0.88-6.3,2.65-8.74c1.77-2.44,4.27-4.35,7.5-5.7
			c3.23-1.35,7-2.03,11.29-2.03c3.31,0,6.45,0.43,9.42,1.3c2.97,0.87,5.66,2.24,8.07,4.12c0.75,0.53,1.26,1.15,1.52,1.86
			c0.26,0.72,0.3,1.43,0.11,2.14c-0.19,0.72-0.55,1.32-1.07,1.81c-0.53,0.49-1.17,0.77-1.92,0.85c-0.75,0.08-1.54-0.15-2.37-0.68
			c-2.26-1.5-4.55-2.61-6.88-3.33c-2.33-0.71-4.63-1.07-6.88-1.07c-4.21,0-7.41,0.83-9.59,2.48c-2.18,1.66-3.27,3.84-3.27,6.55
			c0,2.11,0.68,3.84,2.03,5.19c1.35,1.35,3.46,2.33,6.32,2.93l10.27,2.14c4.89,1.05,8.56,2.73,11,5.02c2.44,2.3,3.67,5.4,3.67,9.31
			c0,4.97-1.99,8.91-5.98,11.85C1870.24,1647.02,1864.94,1648.49,1858.32,1648.49z"/>
		<path class="st2" d="M1967.33,1668.57c-1.51,0-2.65-0.4-3.44-1.18c-0.79-0.79-1.18-1.94-1.18-3.44v-29.34h1.24
			c-1.2,4.21-3.57,7.58-7.11,10.1c-3.54,2.52-7.79,3.78-12.75,3.78c-4.89,0-9.16-1.17-12.81-3.5c-3.65-2.33-6.47-5.62-8.46-9.87
			c-1.99-4.25-2.99-9.27-2.99-15.07c0-5.87,1-10.93,2.99-15.18c1.99-4.25,4.81-7.52,8.46-9.82c3.65-2.29,7.92-3.44,12.81-3.44
			c4.97,0,9.23,1.26,12.81,3.78c3.57,2.52,5.96,5.92,7.17,10.21l-1.24,1.58v-10.72c0-1.5,0.4-2.65,1.18-3.44
			c0.79-0.79,1.9-1.19,3.33-1.19c1.5,0,2.63,0.4,3.39,1.19c0.75,0.79,1.13,1.94,1.13,3.44v67.49c0,1.5-0.39,2.65-1.18,3.44
			C1969.87,1668.18,1968.76,1668.57,1967.33,1668.57z M1946,1641.15c3.39,0,6.36-0.83,8.92-2.48c2.56-1.65,4.53-4.06,5.92-7.22
			c1.39-3.16,2.09-6.96,2.09-11.4c0-6.85-1.52-12.08-4.57-15.69c-3.05-3.61-7.17-5.42-12.36-5.42c-3.46,0-6.45,0.81-8.97,2.43
			c-2.52,1.62-4.48,3.99-5.87,7.11c-1.39,3.12-2.09,6.98-2.09,11.57c0,6.77,1.54,11.98,4.63,15.63
			C1936.78,1639.33,1940.88,1641.15,1946,1641.15z"/>
		<path class="st2" d="M2008.41,1648.49c-4.44,0-8.11-0.81-11-2.43c-2.9-1.62-5.08-4.04-6.55-7.28c-1.47-3.23-2.2-7.26-2.2-12.07
			v-30.24c0-1.58,0.4-2.75,1.18-3.5c0.79-0.75,1.9-1.13,3.33-1.13c1.5,0,2.65,0.38,3.44,1.13c0.79,0.75,1.18,1.92,1.18,3.5v30.13
			c0,4.82,1,8.41,2.99,10.78c1.99,2.37,5.13,3.55,9.42,3.55c4.66,0,8.46-1.58,11.4-4.74c2.93-3.16,4.4-7.3,4.4-12.41v-27.31
			c0-1.58,0.39-2.75,1.18-3.5c0.79-0.75,1.94-1.13,3.44-1.13c1.43,0,2.54,0.38,3.33,1.13c0.79,0.75,1.18,1.92,1.18,3.5v47.06
			c0,3.16-1.47,4.74-4.4,4.74c-1.43,0-2.54-0.42-3.33-1.24s-1.18-1.99-1.18-3.5v-10.27l1.47,1.58c-1.51,4.44-3.97,7.82-7.39,10.16
			C2016.89,1647.32,2012.92,1648.49,2008.41,1648.49z"/>
		<path class="st2" d="M2077.02,1648.49c-5.79,0-10.78-1.15-14.95-3.44c-4.18-2.29-7.41-5.55-9.71-9.76
			c-2.29-4.21-3.44-9.25-3.44-15.12c0-5.72,1.13-10.7,3.39-14.95c2.26-4.25,5.36-7.58,9.31-9.99c3.95-2.41,8.52-3.61,13.71-3.61
			c3.68,0,7,0.62,9.93,1.86c2.93,1.24,5.44,3.03,7.5,5.36c2.07,2.33,3.65,5.15,4.74,8.46c1.09,3.31,1.64,7.04,1.64,11.17
			c0,1.2-0.34,2.09-1.02,2.65c-0.68,0.56-1.66,0.85-2.93,0.85h-39.27v-5.98h37.13l-1.8,1.47c0-4.06-0.6-7.5-1.81-10.33
			c-1.21-2.82-2.95-4.98-5.25-6.49c-2.29-1.5-5.17-2.26-8.63-2.26c-3.84,0-7.09,0.89-9.76,2.65c-2.67,1.77-4.68,4.21-6.04,7.33
			c-1.35,3.12-2.03,6.75-2.03,10.89v0.68c0,6.92,1.67,12.19,5.02,15.8c3.35,3.61,8.11,5.42,14.28,5.42c2.56,0,5.1-0.34,7.62-1.01
			c2.52-0.68,4.98-1.81,7.39-3.39c1.05-0.68,2.01-1,2.88-0.96c0.86,0.04,1.56,0.3,2.09,0.79c0.52,0.49,0.88,1.09,1.07,1.81
			c0.19,0.72,0.11,1.49-0.22,2.31c-0.34,0.83-1,1.54-1.98,2.15c-2.48,1.81-5.42,3.2-8.8,4.17
			C2083.68,1647.99,2080.33,1648.49,2077.02,1648.49z M2079.05,1584.72c-0.53,0.75-1.17,1.18-1.92,1.3c-0.75,0.11-1.47,0-2.14-0.34
			c-0.68-0.34-1.17-0.85-1.47-1.52c-0.3-0.68-0.23-1.47,0.23-2.37l9.48-18.39c0.52-1.05,1.2-1.73,2.03-2.03
			c0.83-0.3,1.67-0.36,2.54-0.17c0.86,0.19,1.6,0.58,2.2,1.19c0.6,0.6,0.96,1.32,1.07,2.14c0.11,0.83-0.13,1.69-0.73,2.6
			L2079.05,1584.72z"/>
		<path class="st2" d="M2146.08,1648.26c-1.51,0-2.65-0.42-3.44-1.24c-0.79-0.83-1.18-1.99-1.18-3.5v-47.06
			c0-1.5,0.38-2.65,1.13-3.44c0.75-0.79,1.84-1.19,3.27-1.19c1.43,0,2.54,0.4,3.33,1.19c0.79,0.79,1.19,1.94,1.19,3.44v9.14h-1.13
			c1.2-4.44,3.5-7.86,6.88-10.27c3.38-2.41,7.56-3.68,12.53-3.84c1.13-0.07,2.03,0.17,2.71,0.73c0.68,0.56,1.05,1.52,1.13,2.88
			c0.07,1.28-0.23,2.3-0.9,3.05c-0.68,0.75-1.73,1.2-3.16,1.35l-1.8,0.23c-5.12,0.45-9.05,2.09-11.79,4.91
			c-2.75,2.82-4.12,6.68-4.12,11.57v27.31c0,1.51-0.39,2.67-1.18,3.5C2148.74,1647.85,2147.59,1648.26,2146.08,1648.26z"/>
		<path class="st2" d="M2206.01,1648.49c-5.79,0-10.78-1.15-14.95-3.44c-4.17-2.29-7.41-5.55-9.7-9.76
			c-2.3-4.21-3.44-9.25-3.44-15.12c0-5.72,1.13-10.7,3.39-14.95c2.26-4.25,5.36-7.58,9.31-9.99c3.95-2.41,8.52-3.61,13.71-3.61
			c3.69,0,7,0.62,9.93,1.86c2.93,1.24,5.43,3.03,7.5,5.36c2.07,2.33,3.65,5.15,4.74,8.46c1.09,3.31,1.64,7.04,1.64,11.17
			c0,1.2-0.34,2.09-1.02,2.65c-0.68,0.56-1.66,0.85-2.93,0.85h-39.27v-5.98h37.13l-1.81,1.47c0-4.06-0.6-7.5-1.81-10.33
			c-1.2-2.82-2.95-4.98-5.25-6.49c-2.29-1.5-5.17-2.26-8.63-2.26c-3.84,0-7.09,0.89-9.76,2.65c-2.67,1.77-4.68,4.21-6.04,7.33
			c-1.35,3.12-2.03,6.75-2.03,10.89v0.68c0,6.92,1.67,12.19,5.02,15.8c3.35,3.61,8.11,5.42,14.28,5.42c2.56,0,5.1-0.34,7.62-1.01
			c2.52-0.68,4.98-1.81,7.39-3.39c1.05-0.68,2.01-1,2.88-0.96c0.87,0.04,1.56,0.3,2.09,0.79c0.52,0.49,0.88,1.09,1.07,1.81
			c0.19,0.72,0.11,1.49-0.23,2.31c-0.34,0.83-1,1.54-1.97,2.15c-2.48,1.81-5.42,3.2-8.8,4.17S2209.32,1648.49,2206.01,1648.49z"/>
		<path class="st2" d="M2265.59,1668.8c-3.99,0-7.88-0.47-11.68-1.41c-3.8-0.94-7.24-2.43-10.33-4.46c-0.9-0.53-1.49-1.17-1.75-1.92
			c-0.27-0.75-0.32-1.49-0.17-2.2c0.15-0.72,0.49-1.35,1.01-1.92c0.53-0.56,1.15-0.92,1.86-1.07c0.71-0.15,1.45-0.04,2.2,0.34
			c3.31,2.03,6.47,3.42,9.48,4.17c3.01,0.75,5.98,1.13,8.92,1.13c5.34,0,9.38-1.43,12.13-4.29c2.74-2.86,4.12-7,4.12-12.41v-12.75
			h1.13c-1.13,4.36-3.52,7.82-7.17,10.38c-3.65,2.56-7.92,3.84-12.81,3.84c-5.04,0-9.41-1.15-13.09-3.44
			c-3.69-2.29-6.53-5.51-8.52-9.65c-1.99-4.14-2.99-8.92-2.99-14.33c0-4.06,0.56-7.77,1.69-11.11c1.13-3.35,2.76-6.21,4.91-8.58
			c2.14-2.37,4.74-4.21,7.79-5.53c3.05-1.32,6.45-1.98,10.21-1.98c4.97,0,9.25,1.26,12.86,3.78c3.61,2.52,5.94,5.92,7,10.21
			l-1.13,1.35v-10.5c0-1.5,0.4-2.65,1.19-3.44c0.79-0.79,1.9-1.19,3.33-1.19c1.5,0,2.63,0.4,3.38,1.19
			c0.75,0.79,1.13,1.94,1.13,3.44v47.06c0,8.35-2.09,14.65-6.26,18.9C2279.87,1666.67,2273.72,1668.8,2265.59,1668.8z
			 M2264.24,1638.78c3.54,0,6.58-0.81,9.14-2.43c2.56-1.62,4.53-3.93,5.92-6.94c1.39-3.01,2.09-6.55,2.09-10.61
			c0-6.09-1.54-10.93-4.63-14.5c-3.09-3.57-7.26-5.36-12.53-5.36c-3.46,0-6.47,0.81-9.03,2.43c-2.56,1.62-4.53,3.91-5.93,6.88
			c-1.39,2.97-2.09,6.49-2.09,10.55c0,6.09,1.54,10.95,4.63,14.56C2254.91,1636.98,2259.05,1638.78,2264.24,1638.78z"/>
		<path class="st2" d="M2324.73,1648.49c-3.76,0-7.13-0.73-10.1-2.2c-2.97-1.47-5.32-3.48-7.05-6.04c-1.73-2.56-2.6-5.42-2.6-8.58
			c0-4.06,1.03-7.26,3.1-9.59c2.07-2.33,5.49-3.99,10.27-4.97c4.78-0.98,11.3-1.47,19.58-1.47h5.08v5.98h-4.97
			c-6.09,0-10.89,0.28-14.39,0.85s-5.94,1.52-7.33,2.88c-1.39,1.35-2.09,3.27-2.09,5.76c0,3.09,1.07,5.61,3.22,7.56
			c2.14,1.96,5.06,2.93,8.75,2.93c3.01,0,5.66-0.71,7.96-2.14c2.29-1.43,4.1-3.39,5.42-5.87c1.32-2.48,1.97-5.34,1.97-8.58v-12.86
			c0-4.66-0.94-8.03-2.82-10.1c-1.88-2.07-4.97-3.1-9.25-3.1c-2.64,0-5.27,0.34-7.9,1.01c-2.64,0.68-5.42,1.77-8.35,3.27
			c-1.05,0.53-1.96,0.7-2.71,0.51c-0.75-0.19-1.35-0.58-1.81-1.19c-0.45-0.6-0.72-1.3-0.79-2.09c-0.08-0.79,0.09-1.56,0.51-2.31
			c0.41-0.75,1.07-1.35,1.97-1.81c3.31-1.65,6.58-2.86,9.82-3.61c3.23-0.75,6.32-1.13,9.25-1.13c4.74,0,8.65,0.77,11.74,2.31
			c3.08,1.54,5.38,3.88,6.88,7c1.5,3.12,2.26,7.13,2.26,12.02v30.58c0,1.51-0.36,2.67-1.07,3.5c-0.72,0.83-1.75,1.24-3.1,1.24
			c-1.43,0-2.52-0.42-3.27-1.24c-0.75-0.83-1.13-1.99-1.13-3.5v-8.8h1.02c-0.6,2.86-1.75,5.3-3.44,7.33
			c-1.69,2.03-3.78,3.61-6.26,4.74C2330.6,1647.92,2327.81,1648.49,2324.73,1648.49z"/>
		<path class="st2" d="M2383.98,1648.49c-5.42,0-9.56-1.65-12.41-4.97c-2.86-3.31-4.29-8.05-4.29-14.22v-57.55
			c0-1.5,0.38-2.65,1.13-3.44s1.88-1.19,3.39-1.19c1.43,0,2.56,0.4,3.39,1.19c0.83,0.79,1.24,1.94,1.24,3.44v56.88
			c0,4.06,0.81,7.09,2.43,9.08c1.62,1.99,4.01,2.99,7.17,2.99c0.68,0,1.28-0.04,1.81-0.11c0.53-0.07,1.05-0.11,1.58-0.11
			c0.83-0.07,1.41,0.11,1.75,0.56c0.34,0.45,0.51,1.35,0.51,2.71c0,1.35-0.3,2.37-0.9,3.05c-0.6,0.68-1.58,1.13-2.93,1.35
			c-0.6,0.07-1.24,0.15-1.92,0.23C2385.22,1648.45,2384.58,1648.49,2383.98,1648.49z"/>
		<path class="st2" d="M2417.94,1648.49c-3.76,0-7.13-0.73-10.1-2.2c-2.97-1.47-5.32-3.48-7.05-6.04c-1.73-2.56-2.6-5.42-2.6-8.58
			c0-4.06,1.03-7.26,3.1-9.59c2.07-2.33,5.49-3.99,10.27-4.97c4.78-0.98,11.3-1.47,19.58-1.47h5.08v5.98h-4.97
			c-6.09,0-10.89,0.28-14.39,0.85s-5.94,1.52-7.33,2.88c-1.39,1.35-2.09,3.27-2.09,5.76c0,3.09,1.07,5.61,3.22,7.56
			c2.14,1.96,5.06,2.93,8.75,2.93c3.01,0,5.66-0.71,7.96-2.14c2.29-1.43,4.1-3.39,5.42-5.87c1.32-2.48,1.97-5.34,1.97-8.58v-12.86
			c0-4.66-0.94-8.03-2.82-10.1c-1.88-2.07-4.97-3.1-9.25-3.1c-2.64,0-5.27,0.34-7.9,1.01c-2.64,0.68-5.42,1.77-8.35,3.27
			c-1.05,0.53-1.96,0.7-2.71,0.51c-0.75-0.19-1.35-0.58-1.81-1.19c-0.45-0.6-0.72-1.3-0.79-2.09c-0.08-0.79,0.09-1.56,0.51-2.31
			c0.41-0.75,1.07-1.35,1.97-1.81c3.31-1.65,6.58-2.86,9.82-3.61c3.23-0.75,6.32-1.13,9.25-1.13c4.74,0,8.65,0.77,11.74,2.31
			c3.08,1.54,5.38,3.88,6.88,7c1.5,3.12,2.26,7.13,2.26,12.02v30.58c0,1.51-0.36,2.67-1.07,3.5c-0.72,0.83-1.75,1.24-3.1,1.24
			c-1.43,0-2.52-0.42-3.27-1.24c-0.75-0.83-1.13-1.99-1.13-3.5v-8.8h1.02c-0.6,2.86-1.75,5.3-3.44,7.33
			c-1.69,2.03-3.78,3.61-6.26,4.74C2423.81,1647.92,2421.03,1648.49,2417.94,1648.49z"/>
		<path class="st2" d="M2465.12,1648.26c-1.51,0-2.65-0.42-3.44-1.24c-0.79-0.83-1.18-1.99-1.18-3.5v-47.06
			c0-1.5,0.38-2.65,1.13-3.44c0.75-0.79,1.84-1.19,3.27-1.19c1.43,0,2.54,0.4,3.33,1.19c0.79,0.79,1.19,1.94,1.19,3.44v9.14h-1.13
			c1.2-4.44,3.5-7.86,6.88-10.27c3.38-2.41,7.56-3.68,12.53-3.84c1.13-0.07,2.03,0.17,2.71,0.73c0.68,0.56,1.05,1.52,1.13,2.88
			c0.07,1.28-0.23,2.3-0.9,3.05c-0.68,0.75-1.73,1.2-3.16,1.35l-1.8,0.23c-5.12,0.45-9.05,2.09-11.79,4.91
			c-2.75,2.82-4.12,6.68-4.12,11.57v27.31c0,1.51-0.39,2.67-1.18,3.5C2467.77,1647.85,2466.62,1648.26,2465.12,1648.26z"/>
		<path class="st2" d="M2517.59,1648.49c-5.42,0-9.56-1.65-12.41-4.97c-2.86-3.31-4.29-8.05-4.29-14.22v-57.55
			c0-1.5,0.38-2.65,1.13-3.44s1.88-1.19,3.39-1.19c1.43,0,2.56,0.4,3.39,1.19c0.83,0.79,1.24,1.94,1.24,3.44v56.88
			c0,4.06,0.81,7.09,2.43,9.08c1.62,1.99,4.01,2.99,7.17,2.99c0.68,0,1.28-0.04,1.8-0.11c0.53-0.07,1.05-0.11,1.58-0.11
			c0.83-0.07,1.41,0.11,1.75,0.56c0.34,0.45,0.51,1.35,0.51,2.71c0,1.35-0.3,2.37-0.9,3.05c-0.6,0.68-1.58,1.13-2.93,1.35
			c-0.6,0.07-1.24,0.15-1.92,0.23C2518.83,1648.45,2518.19,1648.49,2517.59,1648.49z"/>
		<path class="st2" d="M2558.44,1648.49c-5.79,0-10.78-1.15-14.95-3.44c-4.17-2.29-7.41-5.55-9.7-9.76
			c-2.3-4.21-3.44-9.25-3.44-15.12c0-5.72,1.13-10.7,3.39-14.95c2.26-4.25,5.36-7.58,9.31-9.99c3.95-2.41,8.52-3.61,13.71-3.61
			c3.69,0,7,0.62,9.93,1.86c2.93,1.24,5.43,3.03,7.5,5.36c2.07,2.33,3.65,5.15,4.74,8.46c1.09,3.31,1.64,7.04,1.64,11.17
			c0,1.2-0.34,2.09-1.02,2.65c-0.68,0.56-1.66,0.85-2.93,0.85h-39.27v-5.98h37.13l-1.81,1.47c0-4.06-0.6-7.5-1.81-10.33
			c-1.2-2.82-2.95-4.98-5.25-6.49c-2.29-1.5-5.17-2.26-8.63-2.26c-3.84,0-7.09,0.89-9.76,2.65c-2.67,1.77-4.68,4.21-6.04,7.33
			c-1.35,3.12-2.03,6.75-2.03,10.89v0.68c0,6.92,1.67,12.19,5.02,15.8c3.35,3.61,8.11,5.42,14.28,5.42c2.56,0,5.1-0.34,7.62-1.01
			c2.52-0.68,4.98-1.81,7.39-3.39c1.05-0.68,2.01-1,2.88-0.96c0.86,0.04,1.56,0.3,2.09,0.79c0.52,0.49,0.88,1.09,1.07,1.81
			c0.19,0.72,0.11,1.49-0.23,2.31c-0.34,0.83-1,1.54-1.97,2.15c-2.48,1.81-5.42,3.2-8.8,4.17
			C2565.1,1647.99,2561.75,1648.49,2558.44,1648.49z"/>
		<path class="st2" d="M2607.65,1627.16c-0.98,0-1.73-0.32-2.26-0.96c-0.53-0.64-0.79-1.52-0.79-2.65c0-2.63,0.32-5.1,0.96-7.39
			c0.64-2.29,1.65-4.64,3.05-7.05c1.39-2.41,3.29-5,5.7-7.79c1.88-2.26,3.39-4.25,4.51-5.98c1.13-1.73,1.94-3.4,2.43-5.02
			c0.49-1.62,0.73-3.25,0.73-4.91c0-3.16-1.13-5.66-3.39-7.51c-2.26-1.84-5.38-2.76-9.37-2.76c-3.46,0-6.64,0.51-9.54,1.52
			c-2.9,1.01-5.7,2.54-8.41,4.57c-1.13,0.75-2.16,1.13-3.1,1.13c-0.94,0-1.71-0.26-2.31-0.79c-0.6-0.52-1-1.2-1.18-2.03
			c-0.19-0.83-0.08-1.69,0.34-2.6c0.41-0.9,1.15-1.73,2.2-2.48c2.93-2.33,6.39-4.18,10.38-5.53c3.99-1.35,8.01-2.03,12.08-2.03
			c4.29,0,8.07,0.73,11.34,2.2c3.27,1.47,5.81,3.54,7.62,6.21c1.81,2.67,2.71,5.81,2.71,9.42c0,2.33-0.34,4.57-1.02,6.71
			c-0.68,2.15-1.75,4.31-3.22,6.49c-1.47,2.18-3.52,4.67-6.15,7.45c-2.33,2.41-4.21,4.65-5.64,6.72c-1.43,2.07-2.5,4.06-3.22,5.98
			c-0.72,1.92-1.19,3.93-1.41,6.04c-0.07,0.9-0.38,1.64-0.9,2.2C2609.26,1626.88,2608.55,1627.16,2607.65,1627.16z M2607.53,1647.92
			c-1.88,0-3.4-0.58-4.57-1.75c-1.17-1.16-1.75-2.65-1.75-4.46s0.58-3.29,1.75-4.46c1.17-1.17,2.69-1.75,4.57-1.75
			c1.88,0,3.37,0.58,4.46,1.75c1.09,1.17,1.64,2.65,1.64,4.46s-0.55,3.29-1.64,4.46C2610.9,1647.34,2609.41,1647.92,2607.53,1647.92
			z"/>
	</g>
	<g>
		<g>
			<path class="st3" d="M2406.37,1158.99c-4.99,0-9.11-1.63-12.37-4.89c-3.26-3.26-4.89-7.38-4.89-12.37
				c0-4.98,1.63-9.01,4.89-12.08c3.26-3.06,7.38-4.6,12.37-4.6c5.37,0,9.53,1.54,12.51,4.6c2.97,3.07,4.46,7.09,4.46,12.08
				c0,4.99-1.49,9.11-4.46,12.37C2415.91,1157.36,2411.74,1158.99,2406.37,1158.99z"/>
			<path class="st3" d="M2514.21,1160.42c-14.19,0-26.46-3.02-36.81-9.06c-10.35-6.04-18.31-14.57-23.87-25.59
				c-5.56-11.02-8.34-24.01-8.34-38.97c0-11.12,1.58-21.09,4.74-29.91c3.16-8.82,7.72-16.34,13.66-22.57
				c5.94-6.23,13.18-10.97,21.71-14.24c8.53-3.26,18.16-4.89,28.9-4.89c6.71,0,13.8,1.06,21.28,3.16
				c7.48,2.11,14.38,5.56,20.71,10.35c2.11,1.54,3.45,3.31,4.03,5.32c0.58,2.01,0.62,4.08,0.14,6.18c-0.48,2.11-1.44,3.88-2.88,5.32
				c-1.44,1.44-3.26,2.26-5.46,2.44c-2.21,0.19-4.56-0.48-7.04-2.01c-4.6-3.45-9.45-5.94-14.52-7.48c-5.08-1.53-9.92-2.3-14.52-2.3
				c-7.1,0-13.37,1.15-18.84,3.45c-5.46,2.3-10.06,5.61-13.8,9.92c-3.74,4.31-6.57,9.59-8.48,15.82
				c-1.92,6.23-2.88,13.47-2.88,21.71c0,16.3,3.83,29.1,11.5,38.39c7.66,9.3,18.5,13.95,32.5,13.95c4.6,0,9.39-0.72,14.38-2.16
				c4.98-1.44,9.87-3.88,14.67-7.33c2.49-1.53,4.79-2.16,6.9-1.87c2.11,0.29,3.88,1.15,5.32,2.59c1.44,1.44,2.34,3.16,2.73,5.18
				c0.38,2.01,0.24,4.08-0.43,6.18c-0.67,2.11-2.06,3.84-4.17,5.18c-6.14,4.6-12.85,7.96-20.13,10.07
				C2527.92,1159.37,2520.92,1160.42,2514.21,1160.42z"/>
			<path class="st3" d="M2643.91,1160.42c-13.8,0-25.79-2.97-35.95-8.91c-10.16-5.94-18.02-14.38-23.58-25.31
				c-5.56-10.93-8.34-23.77-8.34-38.53c0-11.12,1.58-21.14,4.74-30.05c3.16-8.92,7.72-16.54,13.66-22.86
				c5.94-6.33,13.08-11.17,21.42-14.52c8.34-3.35,17.69-5.03,28.04-5.03c13.8,0,25.78,2.97,35.95,8.91
				c10.16,5.94,18.02,14.33,23.58,25.16c5.56,10.83,8.34,23.63,8.34,38.39c0,11.12-1.58,21.19-4.74,30.2
				c-3.16,9.01-7.72,16.68-13.66,23.01c-5.94,6.33-13.08,11.17-21.42,14.52C2663.61,1158.74,2654.26,1160.42,2643.91,1160.42z
				 M2643.91,1139.72c8.43,0,15.77-2.01,22-6.04c6.23-4.03,11.02-9.87,14.38-17.54c3.35-7.67,5.03-17.16,5.03-28.47
				c0-16.87-3.74-29.71-11.22-38.54c-7.48-8.82-17.54-13.23-30.2-13.23c-8.25,0-15.48,1.97-21.71,5.9
				c-6.23,3.93-11.07,9.73-14.52,17.4c-3.45,7.67-5.18,17.16-5.18,28.47c0,16.87,3.78,29.76,11.36,38.68
				C2621.43,1135.26,2631.44,1139.72,2643.91,1139.72z"/>
			<path class="st3" d="M2758.94,1159.85c-4.03,0-7.19-1.15-9.49-3.45s-3.45-5.65-3.45-10.07V1029c0-4.41,1.15-7.71,3.45-9.92
				c2.3-2.2,5.46-3.31,9.49-3.31c4.03,0,7.14,1.11,9.35,3.31c2.2,2.21,3.31,5.51,3.31,9.92v24.44l-3.16-5.18
				c3.64-10.54,9.54-18.69,17.69-24.44c8.15-5.75,17.87-8.63,29.19-8.63c11.88,0,21.47,2.83,28.76,8.48
				c7.28,5.66,12.17,14.24,14.67,25.74h-4.03c3.45-10.54,9.63-18.88,18.55-25.02c8.91-6.13,19.31-9.2,31.2-9.2
				c10.54,0,19.22,2.06,26.03,6.18c6.8,4.12,11.93,10.26,15.39,18.4c3.45,8.15,5.18,18.55,5.18,31.2v75.35
				c0,4.41-1.15,7.77-3.45,10.07c-2.3,2.3-5.46,3.45-9.49,3.45c-4.22,0-7.48-1.15-9.78-3.45s-3.45-5.65-3.45-10.07v-74.2
				c0-12.27-2.11-21.28-6.33-27.03c-4.22-5.75-11.31-8.63-21.28-8.63c-10.93,0-19.61,3.79-26.03,11.36
				c-6.43,7.58-9.63,17.97-9.63,31.2v67.29c0,4.41-1.11,7.77-3.31,10.07c-2.21,2.3-5.42,3.45-9.63,3.45c-4.22,0-7.48-1.15-9.78-3.45
				s-3.45-5.65-3.45-10.07v-74.2c0-12.27-2.11-21.28-6.33-27.03c-4.22-5.75-11.31-8.63-21.28-8.63c-10.93,0-19.6,3.79-26.03,11.36
				c-6.43,7.58-9.63,17.97-9.63,31.2v67.29C2772.17,1155.34,2767.76,1159.85,2758.94,1159.85z"/>
		</g>
		<g>
			<path class="st4" d="M1671.18,1158.45c-19.72,0-34.85-5.42-45.36-16.27c-10.52-10.85-15.78-26.46-15.78-46.84V509.6
				c0-20.37,5.25-35.82,15.78-46.35c10.51-10.51,25.64-15.78,45.36-15.78c19.72,0,35.01,5.27,45.85,15.78
				c10.85,10.52,16.27,25.98,16.27,46.35V765h-13.81c14.45-34.84,36.98-61.29,67.55-79.38c30.57-18.08,65.24-27.12,104.03-27.12
				c38.78,0,70.66,7.24,95.65,21.69c24.98,14.47,43.71,36.33,56.21,65.58c12.48,29.26,18.74,66.24,18.74,110.94v238.64
				c0,20.38-5.27,35.99-15.78,46.84c-10.52,10.85-25.64,16.27-45.36,16.27c-19.72,0-35.01-5.42-45.85-16.27
				c-10.85-10.85-16.27-26.46-16.27-46.84V862.62c0-37.47-7.07-64.74-21.2-81.85c-14.14-17.09-35.99-25.64-65.58-25.64
				c-36.16,0-64.93,11.34-86.28,34.02c-21.37,22.68-32.05,52.76-32.05,90.23v215.96C1733.31,1137.42,1712.6,1158.45,1671.18,1158.45
				z"/>
			<path class="st4" d="M2248.04,1157.46c-19.72,0-34.85-5.92-45.36-17.75c-10.52-11.83-15.78-28.26-15.78-49.3v-361.9
				c0-21.69,5.25-38.29,15.78-49.8c10.51-11.49,25.64-17.26,45.36-17.26s35.01,5.76,45.85,17.26c10.85,11.51,16.27,28.1,16.27,49.8
				v361.9c0,21.05-5.27,37.47-15.78,49.3C2283.87,1151.55,2268.41,1157.46,2248.04,1157.46z"/>
			<path class="st2" d="M2294.39,598.35c-6.58,9.21-14.47,14.47-23.67,15.78c-9.21,1.32-18.09-0.32-26.62-4.93
				c-8.55-4.59-14.64-11.17-18.24-19.72c-3.62-8.54-2.8-18.08,2.47-28.6l42.07-97.62c5.92-12.48,13.81-20.54,23.67-24.16
				c9.86-3.61,20.04-4.1,30.57-1.48c10.51,2.64,19.55,7.57,27.12,14.79c7.55,7.24,12.16,15.95,13.81,26.13
				c1.63,10.2-1.16,20.55-8.38,31.06L2294.39,598.35z"/>
			<path class="st2" d="M1495.83,1048.01h-6.18c-2.67,0-4.83-2.16-4.83-4.83v-184.5c0-46.01-7.57-83.65-22.68-112.91
				c-15.13-29.24-37.96-51.11-68.53-65.58c-30.57-14.45-69.52-21.69-116.85-21.69c-23.02,0-48.49,2.63-76.42,7.89
				c-27.95,5.27-57.04,14.15-87.27,26.63c-12.5,4.61-21.37,11.68-26.62,21.2c-5.27,9.54-7.89,19.23-7.89,29.09
				c0,9.86,2.62,18.91,7.89,27.12c5.25,8.23,12.65,13.65,22.19,16.27c9.52,2.64,20.54,0.99,33.03-4.93
				c24.31-11.17,47.49-19.06,69.52-23.67c22.02-4.59,42.56-6.9,61.63-6.9c34.17,0,58.5,7.24,72.97,21.69
				c14.45,14.47,21.69,38.13,21.69,71v15.87c0,2.67-2.16,4.83-4.83,4.83h-29.68c-69.69,0-125.23,4.61-166.65,13.81
				c-41.42,9.21-71.34,24.16-89.74,44.87c-18.41,20.71-27.61,48.81-27.61,84.31c0,28.94,7.72,54.9,23.17,77.9
				c15.44,23.02,36.81,41.26,64.1,54.73c27.27,13.47,58.33,20.21,93.19,20.21c26.29,0,49.63-4.61,70.01-13.81
				c20.37-9.2,37.3-22.19,50.78-38.95c3.77-4.69,7.19-9.63,10.26-14.81c2.5-4.21,8.97-2.41,8.97,2.49l0,0v6.29
				c0,32.47,26.32,58.79,58.79,58.79h67.38c31.1,0,56.32-25.22,56.32-56.32l0,0C1551.93,1073.12,1526.81,1048.01,1495.83,1048.01z
				 M1352.68,1018.42c-9.86,17.75-23.17,31.73-39.94,41.91c-16.76,10.2-35.99,15.29-57.69,15.29c-26.96,0-48-6.9-63.11-20.71
				c-15.13-13.8-22.68-31.56-22.68-53.25c0-17.09,5.08-30.4,15.28-39.94c10.19-9.52,27.44-16.27,51.77-20.21
				c24.31-3.94,56.85-5.92,97.62-5.92h28.69c2.67,0,4.83,2.16,4.83,4.83v16.86C1367.47,980.31,1362.54,1000.67,1352.68,1018.42z"/>
		</g>
	</g>
	<g>
		<path class="st2" d="M1410.56,1783.91c-4.89,0-9.16-1.17-12.81-3.5c-3.65-2.33-6.47-5.62-8.46-9.87
			c-1.99-4.25-2.99-9.27-2.99-15.07c0-5.87,1-10.93,2.99-15.18c1.99-4.25,4.81-7.52,8.46-9.82c3.65-2.29,7.92-3.44,12.81-3.44
			c4.97,0,9.21,1.24,12.75,3.72c3.54,2.48,5.91,5.83,7.11,10.04h-1.24v-33.63c0-1.5,0.4-2.65,1.18-3.44
			c0.79-0.79,1.94-1.19,3.44-1.19c1.43,0,2.54,0.4,3.33,1.19c0.79,0.79,1.18,1.94,1.18,3.44v71.77c0,1.51-0.38,2.67-1.13,3.5
			c-0.75,0.83-1.88,1.24-3.39,1.24c-1.43,0-2.54-0.42-3.33-1.24c-0.79-0.83-1.18-1.99-1.18-3.5v-10.72l1.24,1.58
			c-1.2,4.29-3.59,7.71-7.17,10.27C1419.79,1782.63,1415.52,1783.91,1410.56,1783.91z M1412.48,1776.57c3.39,0,6.36-0.83,8.92-2.48
			c2.56-1.65,4.53-4.06,5.92-7.22c1.39-3.16,2.09-6.96,2.09-11.4c0-6.84-1.52-12.08-4.57-15.69c-3.05-3.61-7.17-5.42-12.36-5.42
			c-3.46,0-6.45,0.81-8.97,2.43c-2.52,1.62-4.48,3.99-5.87,7.11c-1.39,3.12-2.09,6.98-2.09,11.57c0,6.77,1.54,11.98,4.63,15.63
			C1403.26,1774.75,1407.36,1776.57,1412.48,1776.57z"/>
		<path class="st2" d="M1480.19,1783.91c-5.79,0-10.78-1.15-14.95-3.44s-7.41-5.55-9.71-9.76c-2.3-4.21-3.44-9.25-3.44-15.12
			c0-5.72,1.13-10.7,3.39-14.95c2.26-4.25,5.36-7.58,9.31-9.99c3.95-2.41,8.52-3.61,13.71-3.61c3.68,0,7,0.62,9.93,1.86
			c2.93,1.24,5.43,3.03,7.5,5.36c2.07,2.33,3.65,5.15,4.74,8.46c1.09,3.31,1.64,7.04,1.64,11.17c0,1.2-0.34,2.09-1.02,2.65
			c-0.68,0.56-1.66,0.85-2.93,0.85h-39.27v-5.98h37.13l-1.81,1.47c0-4.06-0.6-7.5-1.81-10.33c-1.2-2.82-2.95-4.98-5.25-6.49
			c-2.3-1.5-5.17-2.26-8.63-2.26c-3.84,0-7.09,0.89-9.76,2.65c-2.67,1.77-4.68,4.21-6.04,7.33c-1.35,3.12-2.03,6.75-2.03,10.89v0.68
			c0,6.92,1.67,12.19,5.02,15.8c3.35,3.61,8.11,5.42,14.28,5.42c2.56,0,5.1-0.34,7.62-1.01c2.52-0.68,4.98-1.81,7.39-3.39
			c1.05-0.68,2.01-1,2.88-0.96c0.86,0.04,1.56,0.3,2.09,0.79c0.53,0.49,0.88,1.09,1.07,1.81c0.19,0.72,0.11,1.49-0.23,2.31
			c-0.34,0.83-1,1.54-1.98,2.15c-2.48,1.81-5.42,3.2-8.8,4.17C1486.85,1783.42,1483.5,1783.91,1480.19,1783.91z"/>
		<path class="st2" d="M1534.02,1783.91c-3.39,0-6.79-0.42-10.21-1.24c-3.42-0.83-6.6-2.26-9.54-4.29
			c-0.75-0.53-1.28-1.15-1.58-1.86c-0.3-0.71-0.4-1.43-0.28-2.14c0.11-0.71,0.41-1.34,0.9-1.86c0.49-0.53,1.09-0.85,1.81-0.96
			c0.71-0.11,1.52,0.06,2.43,0.51c2.93,1.81,5.77,3.07,8.52,3.78c2.75,0.72,5.47,1.07,8.18,1.07c4.29,0,7.52-0.79,9.71-2.37
			c2.18-1.58,3.27-3.72,3.27-6.43c0-2.1-0.72-3.78-2.14-5.02c-1.43-1.24-3.69-2.2-6.77-2.88l-10.27-2.26
			c-4.74-0.98-8.26-2.67-10.55-5.08c-2.3-2.41-3.44-5.53-3.44-9.37c0-3.38,0.88-6.3,2.65-8.74c1.77-2.44,4.27-4.35,7.5-5.7
			c3.23-1.35,7-2.03,11.29-2.03c3.31,0,6.45,0.43,9.42,1.3c2.97,0.87,5.66,2.24,8.07,4.12c0.75,0.53,1.26,1.15,1.52,1.86
			c0.26,0.72,0.3,1.43,0.11,2.14c-0.19,0.72-0.55,1.32-1.07,1.81c-0.53,0.49-1.17,0.77-1.92,0.85c-0.75,0.08-1.54-0.15-2.37-0.68
			c-2.26-1.5-4.55-2.61-6.88-3.33c-2.33-0.71-4.63-1.07-6.88-1.07c-4.21,0-7.41,0.83-9.59,2.48c-2.18,1.66-3.27,3.84-3.27,6.55
			c0,2.11,0.68,3.84,2.03,5.19c1.35,1.35,3.46,2.33,6.32,2.93l10.27,2.14c4.89,1.05,8.56,2.73,11,5.02c2.44,2.3,3.67,5.4,3.67,9.31
			c0,4.97-1.99,8.91-5.98,11.85C1545.94,1782.44,1540.64,1783.91,1534.02,1783.91z"/>
		<path class="st2" d="M1593.04,1783.91c-5.49,0-10.23-1.2-14.22-3.61c-3.99-2.41-7.05-5.77-9.2-10.1
			c-2.14-4.33-3.22-9.35-3.22-15.07c0-4.36,0.6-8.27,1.81-11.74c1.2-3.46,2.97-6.41,5.3-8.86c2.33-2.44,5.13-4.31,8.41-5.59
			c3.27-1.28,6.98-1.92,11.12-1.92c2.71,0,5.53,0.42,8.46,1.24c2.93,0.83,5.6,2.26,8.01,4.29c0.75,0.53,1.24,1.17,1.47,1.92
			c0.23,0.75,0.23,1.49,0,2.2c-0.23,0.72-0.6,1.32-1.13,1.81c-0.53,0.49-1.19,0.77-1.98,0.85c-0.79,0.08-1.6-0.19-2.43-0.79
			c-1.96-1.5-3.95-2.56-5.98-3.16c-2.03-0.6-3.99-0.9-5.87-0.9c-2.93,0-5.49,0.47-7.67,1.41c-2.18,0.94-4.03,2.28-5.53,4.01
			c-1.51,1.73-2.65,3.88-3.44,6.43c-0.79,2.56-1.19,5.53-1.19,8.92c0,6.55,1.54,11.72,4.63,15.52c3.08,3.8,7.49,5.7,13.2,5.7
			c1.88,0,3.82-0.3,5.81-0.9c1.99-0.6,4.01-1.65,6.04-3.16c0.83-0.6,1.62-0.86,2.37-0.79c0.75,0.08,1.39,0.36,1.92,0.85
			c0.52,0.49,0.88,1.11,1.07,1.86c0.19,0.75,0.17,1.49-0.06,2.2c-0.23,0.72-0.72,1.34-1.47,1.86c-2.41,1.96-5.04,3.37-7.9,4.23
			C1598.53,1783.47,1595.75,1783.91,1593.04,1783.91z"/>
		<path class="st2" d="M1641.45,1783.91c-4.44,0-8.11-0.81-11-2.43c-2.9-1.62-5.08-4.04-6.55-7.28c-1.47-3.23-2.2-7.26-2.2-12.07
			v-30.24c0-1.58,0.4-2.75,1.18-3.5c0.79-0.75,1.9-1.13,3.33-1.13c1.5,0,2.65,0.38,3.44,1.13c0.79,0.75,1.18,1.92,1.18,3.5v30.13
			c0,4.82,1,8.41,2.99,10.78c1.99,2.37,5.13,3.55,9.42,3.55c4.66,0,8.46-1.58,11.4-4.74c2.93-3.16,4.4-7.3,4.4-12.41v-27.31
			c0-1.58,0.39-2.75,1.18-3.5c0.79-0.75,1.94-1.13,3.44-1.13c1.43,0,2.54,0.38,3.33,1.13c0.79,0.75,1.18,1.92,1.18,3.5v47.06
			c0,3.16-1.47,4.74-4.4,4.74c-1.43,0-2.54-0.42-3.33-1.24c-0.79-0.83-1.18-1.99-1.18-3.5v-10.27l1.47,1.58
			c-1.51,4.44-3.97,7.82-7.39,10.16C1649.93,1782.74,1645.96,1783.91,1641.45,1783.91z"/>
		<path class="st2" d="M1713.11,1783.91c-4.97,0-9.24-1.28-12.81-3.84c-3.57-2.56-5.96-5.98-7.17-10.27l1.24-1.24v10.38
			c0,1.51-0.4,2.67-1.18,3.5c-0.79,0.83-1.9,1.24-3.33,1.24c-1.51,0-2.63-0.42-3.39-1.24c-0.75-0.83-1.13-1.99-1.13-3.5v-71.77
			c0-1.5,0.38-2.65,1.13-3.44c0.75-0.79,1.88-1.19,3.39-1.19c1.43,0,2.56,0.4,3.39,1.19c0.83,0.79,1.24,1.94,1.24,3.44v33.63h-1.35
			c1.28-4.21,3.68-7.56,7.22-10.04c3.54-2.48,7.79-3.72,12.75-3.72c4.97,0,9.25,1.15,12.87,3.44c3.61,2.3,6.41,5.57,8.41,9.82
			c1.99,4.25,2.99,9.31,2.99,15.18c0,5.79-1,10.82-2.99,15.07c-1.99,4.25-4.82,7.54-8.46,9.87
			C1722.27,1782.74,1718,1783.91,1713.11,1783.91z M1711.19,1776.57c3.46,0,6.45-0.83,8.97-2.48c2.52-1.65,4.48-4.06,5.87-7.22
			c1.39-3.16,2.09-6.96,2.09-11.4c0-6.84-1.52-12.08-4.57-15.69c-3.05-3.61-7.17-5.42-12.36-5.42c-3.39,0-6.36,0.81-8.92,2.43
			c-2.56,1.62-4.53,3.99-5.92,7.11c-1.39,3.12-2.09,6.98-2.09,11.57c0,6.77,1.54,11.98,4.63,15.63
			C1701.98,1774.75,1706.08,1776.57,1711.19,1776.57z"/>
		<path class="st2" d="M1755.77,1783.68c-1.51,0-2.65-0.42-3.44-1.24c-0.79-0.83-1.18-1.99-1.18-3.5v-47.06
			c0-1.5,0.38-2.65,1.13-3.44c0.75-0.79,1.84-1.19,3.27-1.19c1.43,0,2.54,0.4,3.33,1.19c0.79,0.79,1.18,1.94,1.18,3.44v9.14h-1.13
			c1.2-4.44,3.5-7.86,6.88-10.27c3.39-2.41,7.56-3.69,12.53-3.84c1.13-0.07,2.03,0.17,2.71,0.73c0.68,0.56,1.05,1.52,1.13,2.88
			c0.07,1.28-0.23,2.3-0.9,3.05c-0.68,0.75-1.73,1.2-3.16,1.35l-1.81,0.23c-5.12,0.45-9.05,2.09-11.79,4.91
			c-2.75,2.82-4.12,6.68-4.12,11.57v27.31c0,1.51-0.4,2.67-1.18,3.5C1758.42,1783.27,1757.27,1783.68,1755.77,1783.68z"/>
		<path class="st2" d="M1815.69,1783.91c-5.79,0-10.78-1.15-14.95-3.44s-7.41-5.55-9.71-9.76c-2.3-4.21-3.44-9.25-3.44-15.12
			c0-5.72,1.13-10.7,3.39-14.95c2.26-4.25,5.36-7.58,9.31-9.99c3.95-2.41,8.52-3.61,13.71-3.61c3.69,0,7,0.62,9.93,1.86
			c2.93,1.24,5.43,3.03,7.5,5.36c2.07,2.33,3.65,5.15,4.74,8.46c1.09,3.31,1.64,7.04,1.64,11.17c0,1.2-0.34,2.09-1.02,2.65
			c-0.68,0.56-1.66,0.85-2.93,0.85h-39.27v-5.98h37.13l-1.81,1.47c0-4.06-0.6-7.5-1.81-10.33c-1.2-2.82-2.95-4.98-5.25-6.49
			c-2.3-1.5-5.17-2.26-8.63-2.26c-3.84,0-7.09,0.89-9.76,2.65c-2.67,1.77-4.68,4.21-6.04,7.33c-1.35,3.12-2.03,6.75-2.03,10.89v0.68
			c0,6.92,1.67,12.19,5.02,15.8c3.35,3.61,8.11,5.42,14.28,5.42c2.56,0,5.1-0.34,7.62-1.01c2.52-0.68,4.98-1.81,7.39-3.39
			c1.05-0.68,2.01-1,2.88-0.96c0.86,0.04,1.56,0.3,2.09,0.79c0.53,0.49,0.88,1.09,1.07,1.81c0.19,0.72,0.11,1.49-0.22,2.31
			c-0.34,0.83-1,1.54-1.98,2.15c-2.48,1.81-5.42,3.2-8.8,4.17C1822.35,1783.42,1819,1783.91,1815.69,1783.91z"/>
		<path class="st2" d="M1896.83,1783.91c-5.42,0-9.56-1.65-12.41-4.97c-2.86-3.31-4.29-8.05-4.29-14.22v-57.55
			c0-1.5,0.38-2.65,1.13-3.44c0.75-0.79,1.88-1.19,3.39-1.19c1.43,0,2.56,0.4,3.39,1.19c0.83,0.79,1.24,1.94,1.24,3.44v56.88
			c0,4.06,0.81,7.09,2.43,9.09c1.62,1.99,4.01,2.99,7.17,2.99c0.68,0,1.28-0.04,1.81-0.11c0.53-0.07,1.05-0.11,1.58-0.11
			c0.83-0.07,1.41,0.11,1.75,0.56c0.34,0.45,0.51,1.35,0.51,2.71c0,1.35-0.3,2.37-0.9,3.05c-0.6,0.68-1.58,1.13-2.93,1.35
			c-0.6,0.07-1.24,0.15-1.92,0.23C1898.07,1783.87,1897.43,1783.91,1896.83,1783.91z"/>
		<path class="st2" d="M1935.77,1783.91c-5.34,0-9.97-1.17-13.88-3.5c-3.91-2.33-6.94-5.62-9.08-9.87
			c-2.14-4.25-3.22-9.27-3.22-15.07c0-4.36,0.6-8.29,1.81-11.79c1.2-3.5,2.97-6.49,5.3-8.97c2.33-2.48,5.1-4.38,8.29-5.7
			c3.2-1.32,6.79-1.98,10.78-1.98c5.34,0,9.97,1.17,13.88,3.5c3.91,2.33,6.94,5.62,9.08,9.87c2.14,4.25,3.22,9.27,3.22,15.07
			c0,4.36-0.6,8.28-1.81,11.74c-1.2,3.46-2.97,6.45-5.3,8.97c-2.33,2.52-5.1,4.44-8.29,5.76
			C1943.34,1783.25,1939.75,1783.91,1935.77,1783.91z M1935.77,1776.57c3.39,0,6.36-0.83,8.92-2.48c2.56-1.65,4.53-4.06,5.92-7.22
			c1.39-3.16,2.09-6.96,2.09-11.4c0-6.84-1.52-12.08-4.57-15.69c-3.05-3.61-7.17-5.42-12.36-5.42c-3.46,0-6.45,0.81-8.97,2.43
			c-2.52,1.62-4.48,3.99-5.87,7.11c-1.39,3.12-2.09,6.98-2.09,11.57c0,6.77,1.54,11.98,4.63,15.63
			C1926.55,1774.75,1930.65,1776.57,1935.77,1776.57z"/>
		<path class="st2" d="M2048.96,1804c-1.51,0-2.65-0.4-3.44-1.18c-0.79-0.79-1.18-1.94-1.18-3.44v-29.34h1.24
			c-1.2,4.21-3.57,7.58-7.11,10.1c-3.54,2.52-7.79,3.78-12.75,3.78c-4.89,0-9.16-1.17-12.81-3.5c-3.65-2.33-6.47-5.62-8.46-9.87
			c-1.99-4.25-2.99-9.27-2.99-15.07c0-5.87,1-10.93,2.99-15.18c1.99-4.25,4.81-7.52,8.46-9.82c3.65-2.29,7.92-3.44,12.81-3.44
			c4.97,0,9.23,1.26,12.81,3.78c3.57,2.52,5.96,5.93,7.17,10.21l-1.24,1.58v-10.72c0-1.5,0.4-2.65,1.18-3.44s1.9-1.19,3.33-1.19
			c1.5,0,2.63,0.4,3.39,1.19c0.75,0.79,1.13,1.94,1.13,3.44v67.49c0,1.5-0.39,2.65-1.18,3.44
			C2051.49,1803.6,2050.38,1804,2048.96,1804z M2027.63,1776.57c3.39,0,6.36-0.83,8.92-2.48c2.56-1.65,4.53-4.06,5.92-7.22
			c1.39-3.16,2.09-6.96,2.09-11.4c0-6.84-1.52-12.08-4.57-15.69c-3.05-3.61-7.17-5.42-12.36-5.42c-3.46,0-6.45,0.81-8.97,2.43
			c-2.52,1.62-4.48,3.99-5.87,7.11c-1.39,3.12-2.09,6.98-2.09,11.57c0,6.77,1.54,11.98,4.63,15.63
			C2018.41,1774.75,2022.51,1776.57,2027.63,1776.57z"/>
		<path class="st2" d="M2090.03,1783.91c-4.44,0-8.11-0.81-11-2.43c-2.9-1.62-5.08-4.04-6.55-7.28c-1.47-3.23-2.2-7.26-2.2-12.07
			v-30.24c0-1.58,0.4-2.75,1.18-3.5c0.79-0.75,1.9-1.13,3.33-1.13c1.5,0,2.65,0.38,3.44,1.13c0.79,0.75,1.18,1.92,1.18,3.5v30.13
			c0,4.82,1,8.41,2.99,10.78c1.99,2.37,5.13,3.55,9.42,3.55c4.66,0,8.46-1.58,11.4-4.74c2.93-3.16,4.4-7.3,4.4-12.41v-27.31
			c0-1.58,0.4-2.75,1.19-3.5c0.79-0.75,1.94-1.13,3.44-1.13c1.43,0,2.54,0.38,3.33,1.13c0.79,0.75,1.19,1.92,1.19,3.5v47.06
			c0,3.16-1.47,4.74-4.4,4.74c-1.43,0-2.54-0.42-3.33-1.24c-0.79-0.83-1.19-1.99-1.19-3.5v-10.27l1.47,1.58
			c-1.51,4.44-3.97,7.82-7.39,10.16C2098.51,1782.74,2094.55,1783.91,2090.03,1783.91z"/>
		<path class="st2" d="M2158.65,1783.91c-5.8,0-10.78-1.15-14.95-3.44s-7.41-5.55-9.7-9.76c-2.3-4.21-3.44-9.25-3.44-15.12
			c0-5.72,1.13-10.7,3.39-14.95c2.26-4.25,5.36-7.58,9.31-9.99c3.95-2.41,8.52-3.61,13.71-3.61c3.69,0,7,0.62,9.93,1.86
			c2.94,1.24,5.44,3.03,7.5,5.36c2.07,2.33,3.65,5.15,4.74,8.46c1.09,3.31,1.64,7.04,1.64,11.17c0,1.2-0.34,2.09-1.02,2.65
			c-0.68,0.56-1.66,0.85-2.94,0.85h-39.27v-5.98h37.13l-1.81,1.47c0-4.06-0.6-7.5-1.81-10.33c-1.2-2.82-2.95-4.98-5.25-6.49
			c-2.29-1.5-5.17-2.26-8.63-2.26c-3.84,0-7.09,0.89-9.76,2.65c-2.67,1.77-4.68,4.21-6.04,7.33c-1.35,3.12-2.03,6.75-2.03,10.89
			v0.68c0,6.92,1.67,12.19,5.02,15.8c3.34,3.61,8.11,5.42,14.28,5.42c2.55,0,5.1-0.34,7.62-1.01c2.52-0.68,4.98-1.81,7.39-3.39
			c1.05-0.68,2.01-1,2.88-0.96c0.86,0.04,1.56,0.3,2.09,0.79c0.52,0.49,0.89,1.09,1.07,1.81c0.19,0.72,0.11,1.49-0.23,2.31
			c-0.34,0.83-1,1.54-1.97,2.15c-2.48,1.81-5.42,3.2-8.8,4.17C2165.3,1783.42,2161.95,1783.91,2158.65,1783.91z"/>
		<path class="st2" d="M2243.96,1783.91c-4.89,0-9.16-1.17-12.81-3.5c-3.65-2.33-6.47-5.62-8.46-9.87
			c-1.99-4.25-2.99-9.27-2.99-15.07c0-5.87,1-10.93,2.99-15.18c1.99-4.25,4.81-7.52,8.46-9.82c3.65-2.29,7.92-3.44,12.81-3.44
			c4.97,0,9.21,1.24,12.75,3.72c3.54,2.48,5.91,5.83,7.11,10.04h-1.24v-33.63c0-1.5,0.4-2.65,1.19-3.44
			c0.79-0.79,1.94-1.19,3.44-1.19c1.43,0,2.54,0.4,3.33,1.19c0.79,0.79,1.18,1.94,1.18,3.44v71.77c0,1.51-0.38,2.67-1.13,3.5
			c-0.75,0.83-1.88,1.24-3.39,1.24c-1.43,0-2.54-0.42-3.33-1.24c-0.79-0.83-1.19-1.99-1.19-3.5v-10.72l1.24,1.58
			c-1.2,4.29-3.59,7.71-7.17,10.27C2253.19,1782.63,2248.92,1783.91,2243.96,1783.91z M2245.88,1776.57c3.38,0,6.36-0.83,8.91-2.48
			c2.56-1.65,4.53-4.06,5.93-7.22c1.39-3.16,2.09-6.96,2.09-11.4c0-6.84-1.52-12.08-4.57-15.69c-3.05-3.61-7.17-5.42-12.36-5.42
			c-3.46,0-6.45,0.81-8.97,2.43c-2.52,1.62-4.48,3.99-5.87,7.11c-1.39,3.12-2.09,6.98-2.09,11.57c0,6.77,1.54,11.98,4.63,15.63
			C2236.66,1774.75,2240.76,1776.57,2245.88,1776.57z"/>
		<path class="st2" d="M2313.59,1783.91c-5.79,0-10.78-1.15-14.95-3.44c-4.17-2.29-7.41-5.55-9.7-9.76
			c-2.3-4.21-3.44-9.25-3.44-15.12c0-5.72,1.13-10.7,3.39-14.95c2.26-4.25,5.36-7.58,9.31-9.99c3.95-2.41,8.52-3.61,13.71-3.61
			c3.69,0,7,0.62,9.93,1.86c2.93,1.24,5.43,3.03,7.5,5.36c2.07,2.33,3.65,5.15,4.74,8.46c1.09,3.31,1.64,7.04,1.64,11.17
			c0,1.2-0.34,2.09-1.02,2.65c-0.68,0.56-1.66,0.85-2.93,0.85h-39.27v-5.98h37.13l-1.8,1.47c0-4.06-0.6-7.5-1.81-10.33
			c-1.2-2.82-2.95-4.98-5.25-6.49c-2.29-1.5-5.17-2.26-8.63-2.26c-3.84,0-7.09,0.89-9.76,2.65c-2.67,1.77-4.68,4.21-6.04,7.33
			c-1.35,3.12-2.03,6.75-2.03,10.89v0.68c0,6.92,1.67,12.19,5.02,15.8c3.35,3.61,8.11,5.42,14.28,5.42c2.56,0,5.1-0.34,7.62-1.01
			c2.52-0.68,4.98-1.81,7.39-3.39c1.05-0.68,2.01-1,2.88-0.96c0.87,0.04,1.56,0.3,2.09,0.79c0.52,0.49,0.88,1.09,1.07,1.81
			c0.19,0.72,0.11,1.49-0.23,2.31c-0.34,0.83-1,1.54-1.97,2.15c-2.48,1.81-5.42,3.2-8.8,4.17
			C2320.25,1783.42,2316.9,1783.91,2313.59,1783.91z"/>
		<path class="st2" d="M2367.42,1783.91c-3.39,0-6.79-0.42-10.21-1.24c-3.42-0.83-6.6-2.26-9.54-4.29
			c-0.75-0.53-1.28-1.15-1.58-1.86c-0.3-0.71-0.4-1.43-0.28-2.14c0.11-0.71,0.41-1.34,0.9-1.86c0.49-0.53,1.09-0.85,1.8-0.96
			c0.71-0.11,1.52,0.06,2.43,0.51c2.93,1.81,5.77,3.07,8.52,3.78c2.75,0.72,5.47,1.07,8.18,1.07c4.29,0,7.52-0.79,9.7-2.37
			c2.18-1.58,3.27-3.72,3.27-6.43c0-2.1-0.72-3.78-2.14-5.02c-1.43-1.24-3.69-2.2-6.77-2.88l-10.27-2.26
			c-4.74-0.98-8.26-2.67-10.55-5.08c-2.29-2.41-3.44-5.53-3.44-9.37c0-3.38,0.88-6.3,2.65-8.74c1.77-2.44,4.27-4.35,7.51-5.7
			c3.23-1.35,7-2.03,11.29-2.03c3.31,0,6.45,0.43,9.42,1.3c2.97,0.87,5.66,2.24,8.07,4.12c0.75,0.53,1.26,1.15,1.52,1.86
			c0.26,0.72,0.3,1.43,0.11,2.14c-0.19,0.72-0.55,1.32-1.07,1.81c-0.53,0.49-1.17,0.77-1.92,0.85c-0.75,0.08-1.54-0.15-2.37-0.68
			c-2.26-1.5-4.55-2.61-6.88-3.33c-2.33-0.71-4.63-1.07-6.88-1.07c-4.21,0-7.41,0.83-9.59,2.48c-2.18,1.66-3.27,3.84-3.27,6.55
			c0,2.11,0.68,3.84,2.03,5.19c1.35,1.35,3.46,2.33,6.32,2.93l10.27,2.14c4.89,1.05,8.56,2.73,11,5.02c2.44,2.3,3.67,5.4,3.67,9.31
			c0,4.97-1.99,8.91-5.98,11.85C2379.34,1782.44,2374.04,1783.91,2367.42,1783.91z"/>
		<path class="st2" d="M2427.91,1783.91c-5.79,0-10.78-1.15-14.95-3.44c-4.17-2.29-7.41-5.55-9.7-9.76
			c-2.3-4.21-3.44-9.25-3.44-15.12c0-5.72,1.13-10.7,3.39-14.95c2.26-4.25,5.36-7.58,9.31-9.99c3.95-2.41,8.52-3.61,13.71-3.61
			c3.69,0,7,0.62,9.93,1.86c2.93,1.24,5.43,3.03,7.5,5.36c2.07,2.33,3.65,5.15,4.74,8.46c1.09,3.31,1.64,7.04,1.64,11.17
			c0,1.2-0.34,2.09-1.02,2.65c-0.68,0.56-1.66,0.85-2.93,0.85h-39.27v-5.98h37.13l-1.81,1.47c0-4.06-0.6-7.5-1.81-10.33
			c-1.2-2.82-2.95-4.98-5.25-6.49c-2.29-1.5-5.17-2.26-8.63-2.26c-3.84,0-7.09,0.89-9.76,2.65c-2.67,1.77-4.68,4.21-6.04,7.33
			c-1.35,3.12-2.03,6.75-2.03,10.89v0.68c0,6.92,1.67,12.19,5.02,15.8c3.35,3.61,8.11,5.42,14.28,5.42c2.56,0,5.1-0.34,7.62-1.01
			c2.52-0.68,4.98-1.81,7.39-3.39c1.05-0.68,2.01-1,2.88-0.96c0.87,0.04,1.56,0.3,2.09,0.79c0.52,0.49,0.88,1.09,1.07,1.81
			c0.19,0.72,0.11,1.49-0.23,2.31c-0.34,0.83-1,1.54-1.97,2.15c-2.48,1.81-5.42,3.2-8.8,4.17S2431.22,1783.91,2427.91,1783.91z"/>
		<path class="st2" d="M2480.5,1783.91c-3.76,0-7.13-0.73-10.1-2.2c-2.97-1.47-5.32-3.48-7.05-6.04c-1.73-2.56-2.6-5.42-2.6-8.58
			c0-4.06,1.03-7.26,3.1-9.59c2.07-2.33,5.49-3.99,10.27-4.97c4.78-0.98,11.3-1.47,19.58-1.47h5.08v5.98h-4.97
			c-6.09,0-10.89,0.28-14.39,0.85c-3.5,0.56-5.94,1.52-7.33,2.88c-1.39,1.35-2.09,3.27-2.09,5.76c0,3.09,1.07,5.61,3.22,7.56
			c2.14,1.96,5.06,2.93,8.75,2.93c3.01,0,5.66-0.71,7.96-2.14c2.29-1.43,4.1-3.39,5.42-5.87c1.32-2.48,1.97-5.34,1.97-8.58v-12.86
			c0-4.66-0.94-8.03-2.82-10.1c-1.88-2.07-4.97-3.1-9.25-3.1c-2.64,0-5.27,0.34-7.9,1.01c-2.64,0.68-5.42,1.77-8.35,3.27
			c-1.05,0.53-1.96,0.7-2.71,0.51c-0.75-0.19-1.35-0.58-1.81-1.19c-0.45-0.6-0.72-1.3-0.79-2.09c-0.08-0.79,0.09-1.56,0.51-2.31
			c0.41-0.75,1.07-1.35,1.97-1.81c3.31-1.65,6.58-2.86,9.82-3.61c3.23-0.75,6.32-1.13,9.25-1.13c4.74,0,8.65,0.77,11.74,2.31
			c3.08,1.54,5.38,3.88,6.88,7c1.5,3.12,2.26,7.13,2.26,12.02v30.58c0,1.51-0.36,2.67-1.07,3.5c-0.72,0.83-1.75,1.24-3.1,1.24
			c-1.43,0-2.52-0.42-3.27-1.24c-0.75-0.83-1.13-1.99-1.13-3.5v-8.8h1.02c-0.6,2.86-1.75,5.3-3.44,7.33
			c-1.69,2.03-3.78,3.61-6.26,4.74C2486.36,1783.34,2483.58,1783.91,2480.5,1783.91z"/>
		<path class="st2" d="M2556.78,1783.68c-1.51,0-2.65-0.42-3.44-1.24c-0.79-0.83-1.18-1.99-1.18-3.5v-47.06
			c0-1.5,0.38-2.65,1.13-3.44c0.75-0.79,1.84-1.19,3.27-1.19c1.43,0,2.54,0.4,3.33,1.19c0.79,0.79,1.19,1.94,1.19,3.44v9.14h-1.13
			c1.2-4.44,3.5-7.86,6.88-10.27c3.38-2.41,7.56-3.69,12.53-3.84c1.13-0.07,2.03,0.17,2.71,0.73s1.05,1.52,1.13,2.88
			c0.07,1.28-0.23,2.3-0.9,3.05c-0.68,0.75-1.73,1.2-3.16,1.35l-1.81,0.23c-5.12,0.45-9.05,2.09-11.79,4.91
			c-2.75,2.82-4.12,6.68-4.12,11.57v27.31c0,1.51-0.39,2.67-1.18,3.5C2559.43,1783.27,2558.29,1783.68,2556.78,1783.68z"/>
		<path class="st2" d="M2616.71,1783.91c-5.79,0-10.78-1.15-14.95-3.44c-4.17-2.29-7.41-5.55-9.7-9.76
			c-2.3-4.21-3.44-9.25-3.44-15.12c0-5.72,1.13-10.7,3.39-14.95c2.26-4.25,5.36-7.58,9.31-9.99c3.95-2.41,8.52-3.61,13.71-3.61
			c3.69,0,7,0.62,9.93,1.86c2.93,1.24,5.43,3.03,7.5,5.36c2.07,2.33,3.65,5.15,4.74,8.46c1.09,3.31,1.64,7.04,1.64,11.17
			c0,1.2-0.34,2.09-1.02,2.65c-0.68,0.56-1.66,0.85-2.93,0.85h-39.27v-5.98h37.13l-1.81,1.47c0-4.06-0.6-7.5-1.81-10.33
			c-1.2-2.82-2.95-4.98-5.25-6.49c-2.29-1.5-5.17-2.26-8.63-2.26c-3.84,0-7.09,0.89-9.76,2.65c-2.67,1.77-4.68,4.21-6.04,7.33
			c-1.35,3.12-2.03,6.75-2.03,10.89v0.68c0,6.92,1.67,12.19,5.02,15.8c3.35,3.61,8.11,5.42,14.28,5.42c2.56,0,5.1-0.34,7.62-1.01
			c2.52-0.68,4.98-1.81,7.39-3.39c1.05-0.68,2.01-1,2.88-0.96c0.87,0.04,1.56,0.3,2.09,0.79c0.52,0.49,0.88,1.09,1.07,1.81
			c0.19,0.72,0.11,1.49-0.23,2.31c-0.34,0.83-1,1.54-1.97,2.15c-2.48,1.81-5.42,3.2-8.8,4.17S2620.02,1783.91,2616.71,1783.91z"/>
		<path class="st2" d="M2675.28,1783.91c-5.49,0-10.23-1.2-14.22-3.61c-3.99-2.41-7.05-5.77-9.2-10.1
			c-2.14-4.33-3.22-9.35-3.22-15.07c0-4.36,0.6-8.27,1.81-11.74c1.2-3.46,2.97-6.41,5.31-8.86c2.33-2.44,5.13-4.31,8.41-5.59
			c3.27-1.28,6.98-1.92,11.12-1.92c2.71,0,5.53,0.42,8.46,1.24c2.93,0.83,5.6,2.26,8.01,4.29c0.75,0.53,1.24,1.17,1.47,1.92
			c0.23,0.75,0.23,1.49,0,2.2c-0.23,0.72-0.6,1.32-1.13,1.81c-0.53,0.49-1.18,0.77-1.97,0.85c-0.79,0.08-1.6-0.19-2.43-0.79
			c-1.96-1.5-3.95-2.56-5.98-3.16c-2.03-0.6-3.99-0.9-5.87-0.9c-2.93,0-5.49,0.47-7.67,1.41c-2.18,0.94-4.03,2.28-5.53,4.01
			c-1.51,1.73-2.65,3.88-3.44,6.43c-0.79,2.56-1.18,5.53-1.18,8.92c0,6.55,1.54,11.72,4.63,15.52c3.08,3.8,7.49,5.7,13.2,5.7
			c1.88,0,3.82-0.3,5.81-0.9c1.99-0.6,4.01-1.65,6.04-3.16c0.83-0.6,1.62-0.86,2.37-0.79c0.75,0.08,1.39,0.36,1.92,0.85
			c0.53,0.49,0.88,1.11,1.07,1.86c0.19,0.75,0.17,1.49-0.06,2.2c-0.23,0.72-0.72,1.34-1.47,1.86c-2.41,1.96-5.04,3.37-7.9,4.23
			C2680.77,1783.47,2677.98,1783.91,2675.28,1783.91z"/>
		<path class="st2" d="M2708.79,1714.84c-1.88,0-3.35-0.51-4.4-1.52c-1.05-1.01-1.58-2.39-1.58-4.12c0-1.81,0.53-3.18,1.58-4.12
			c1.05-0.94,2.52-1.41,4.4-1.41c1.96,0,3.44,0.47,4.46,1.41c1.01,0.94,1.52,2.31,1.52,4.12c0,1.73-0.51,3.1-1.52,4.12
			C2712.24,1714.34,2710.75,1714.84,2708.79,1714.84z M2708.79,1783.46c-1.51,0-2.63-0.43-3.39-1.3c-0.75-0.86-1.13-2.09-1.13-3.67
			v-46.16c0-1.58,0.38-2.78,1.13-3.61c0.75-0.83,1.88-1.24,3.39-1.24c1.43,0,2.56,0.42,3.39,1.24c0.83,0.83,1.24,2.03,1.24,3.61
			v46.16c0,1.58-0.4,2.8-1.19,3.67C2711.44,1783.02,2710.3,1783.46,2708.79,1783.46z"/>
		<path class="st2" d="M2758.22,1783.91c-4.97,0-9.24-1.28-12.81-3.84c-3.57-2.56-5.96-5.98-7.17-10.27l1.24-1.24v10.38
			c0,1.51-0.4,2.67-1.19,3.5c-0.79,0.83-1.9,1.24-3.33,1.24c-1.51,0-2.63-0.42-3.39-1.24c-0.75-0.83-1.13-1.99-1.13-3.5v-71.77
			c0-1.5,0.38-2.65,1.13-3.44c0.75-0.79,1.88-1.19,3.39-1.19c1.43,0,2.56,0.4,3.39,1.19c0.83,0.79,1.24,1.94,1.24,3.44v33.63h-1.35
			c1.28-4.21,3.69-7.56,7.22-10.04c3.54-2.48,7.79-3.72,12.75-3.72c4.97,0,9.25,1.15,12.86,3.44c3.61,2.3,6.41,5.57,8.41,9.82
			c1.99,4.25,2.99,9.31,2.99,15.18c0,5.79-1,10.82-2.99,15.07c-1.99,4.25-4.82,7.54-8.46,9.87
			C2767.38,1782.74,2763.11,1783.91,2758.22,1783.91z M2756.3,1776.57c3.46,0,6.45-0.83,8.97-2.48c2.52-1.65,4.48-4.06,5.87-7.22
			c1.39-3.16,2.09-6.96,2.09-11.4c0-6.84-1.52-12.08-4.57-15.69c-3.05-3.61-7.17-5.42-12.36-5.42c-3.38,0-6.36,0.81-8.91,2.43
			c-2.56,1.62-4.53,3.99-5.93,7.11c-1.39,3.12-2.09,6.98-2.09,11.57c0,6.77,1.54,11.98,4.63,15.63
			C2747.09,1774.75,2751.19,1776.57,2756.3,1776.57z"/>
		<path class="st2" d="M2800.77,1714.84c-1.88,0-3.35-0.51-4.4-1.52c-1.05-1.01-1.58-2.39-1.58-4.12c0-1.81,0.53-3.18,1.58-4.12
			c1.05-0.94,2.52-1.41,4.4-1.41c1.96,0,3.44,0.47,4.46,1.41c1.01,0.94,1.52,2.31,1.52,4.12c0,1.73-0.51,3.1-1.52,4.12
			C2804.21,1714.34,2802.72,1714.84,2800.77,1714.84z M2800.77,1783.46c-1.51,0-2.63-0.43-3.39-1.3c-0.75-0.86-1.13-2.09-1.13-3.67
			v-46.16c0-1.58,0.38-2.78,1.13-3.61c0.75-0.83,1.88-1.24,3.39-1.24c1.43,0,2.56,0.42,3.39,1.24c0.83,0.83,1.24,2.03,1.24,3.61
			v46.16c0,1.58-0.4,2.8-1.19,3.67C2803.42,1783.02,2802.27,1783.46,2800.77,1783.46z"/>
		<path class="st2" d="M2827.06,1783.68c-1.51,0-2.65-0.42-3.44-1.24c-0.79-0.83-1.18-1.99-1.18-3.5v-47.06
			c0-1.5,0.38-2.65,1.13-3.44c0.75-0.79,1.84-1.19,3.27-1.19c1.43,0,2.54,0.4,3.33,1.19c0.79,0.79,1.19,1.94,1.19,3.44v9.14h-1.13
			c1.2-4.44,3.5-7.86,6.88-10.27c3.38-2.41,7.56-3.69,12.53-3.84c1.13-0.07,2.03,0.17,2.71,0.73s1.05,1.52,1.13,2.88
			c0.07,1.28-0.23,2.3-0.9,3.05c-0.68,0.75-1.73,1.2-3.16,1.35l-1.81,0.23c-5.12,0.45-9.05,2.09-11.79,4.91
			c-2.75,2.82-4.12,6.68-4.12,11.57v27.31c0,1.51-0.39,2.67-1.18,3.5C2829.71,1783.27,2828.56,1783.68,2827.06,1783.68z"/>
		<g>
			<g>
				<path class="st3" d="M1309.41,1783.74c-0.6,0-1.09-0.2-1.48-0.59c-0.39-0.39-0.59-0.89-0.59-1.48c0-0.6,0.2-1.08,0.59-1.45
					c0.39-0.37,0.89-0.55,1.48-0.55c0.64,0,1.14,0.18,1.5,0.55c0.36,0.37,0.54,0.85,0.54,1.45c0,0.6-0.18,1.09-0.54,1.48
					C1310.56,1783.54,1310.06,1783.74,1309.41,1783.74z"/>
				<path class="st3" d="M1322.35,1783.91c-1.7,0-3.17-0.36-4.42-1.09c-1.24-0.72-2.2-1.75-2.86-3.07c-0.67-1.32-1-2.88-1-4.68
					c0-1.33,0.19-2.53,0.57-3.59c0.38-1.06,0.93-1.96,1.64-2.71c0.71-0.75,1.58-1.32,2.61-1.71c1.02-0.39,2.18-0.59,3.47-0.59
					c0.8,0,1.66,0.13,2.55,0.38c0.9,0.25,1.73,0.67,2.48,1.24c0.25,0.18,0.41,0.4,0.48,0.64c0.07,0.24,0.07,0.49,0.02,0.74
					c-0.06,0.25-0.17,0.47-0.35,0.64c-0.17,0.17-0.39,0.27-0.66,0.29c-0.26,0.02-0.55-0.06-0.85-0.24c-0.55-0.41-1.13-0.71-1.74-0.9
					c-0.61-0.18-1.19-0.28-1.74-0.28c-0.85,0-1.6,0.14-2.26,0.41c-0.66,0.28-1.21,0.67-1.66,1.19c-0.45,0.52-0.79,1.15-1.02,1.9
					c-0.23,0.75-0.35,1.62-0.35,2.61c0,1.96,0.46,3.49,1.38,4.61c0.92,1.12,2.22,1.67,3.9,1.67c0.55,0,1.13-0.09,1.73-0.26
					c0.6-0.17,1.18-0.47,1.76-0.88c0.3-0.18,0.57-0.26,0.83-0.22c0.25,0.03,0.47,0.14,0.64,0.31s0.28,0.38,0.33,0.62
					c0.05,0.24,0.03,0.49-0.05,0.74c-0.08,0.25-0.25,0.46-0.5,0.62c-0.74,0.55-1.54,0.95-2.42,1.21
					C1324,1783.78,1323.16,1783.91,1322.35,1783.91z"/>
				<path class="st3" d="M1337.92,1783.91c-1.66,0-3.09-0.36-4.31-1.07c-1.22-0.71-2.16-1.73-2.83-3.04c-0.67-1.31-1-2.85-1-4.62
					c0-1.33,0.19-2.54,0.57-3.61c0.38-1.07,0.93-1.98,1.64-2.74c0.71-0.76,1.57-1.34,2.57-1.74c1-0.4,2.12-0.6,3.36-0.6
					c1.66,0,3.09,0.36,4.31,1.07c1.22,0.71,2.16,1.72,2.83,3.02c0.67,1.3,1,2.84,1,4.61c0,1.33-0.19,2.54-0.57,3.62
					c-0.38,1.08-0.93,2-1.64,2.76c-0.71,0.76-1.57,1.34-2.57,1.74C1340.28,1783.71,1339.16,1783.91,1337.92,1783.91z
					 M1337.92,1781.42c1.01,0,1.89-0.24,2.64-0.72c0.75-0.48,1.32-1.18,1.73-2.1c0.4-0.92,0.6-2.06,0.6-3.42
					c0-2.02-0.45-3.57-1.35-4.62c-0.9-1.06-2.1-1.59-3.62-1.59c-0.99,0-1.86,0.24-2.61,0.71c-0.75,0.47-1.33,1.17-1.74,2.09
					c-0.41,0.92-0.62,2.06-0.62,3.42c0,2.02,0.45,3.57,1.36,4.64C1335.22,1780.89,1336.42,1781.42,1337.92,1781.42z"/>
				<path class="st3" d="M1351.72,1783.84c-0.48,0-0.86-0.14-1.14-0.41c-0.28-0.28-0.41-0.68-0.41-1.21v-14.08
					c0-0.53,0.14-0.93,0.41-1.19c0.28-0.26,0.66-0.4,1.14-0.4s0.86,0.13,1.12,0.4c0.26,0.26,0.4,0.66,0.4,1.19v2.93l-0.38-0.62
					c0.44-1.26,1.14-2.24,2.12-2.93c0.98-0.69,2.14-1.04,3.5-1.04c1.43,0,2.58,0.34,3.45,1.02c0.87,0.68,1.46,1.71,1.76,3.09h-0.48
					c0.41-1.27,1.16-2.27,2.23-3c1.07-0.74,2.32-1.1,3.74-1.1c1.27,0,2.31,0.25,3.12,0.74c0.82,0.49,1.43,1.23,1.85,2.21
					c0.41,0.98,0.62,2.23,0.62,3.74v9.04c0,0.53-0.14,0.93-0.41,1.21c-0.28,0.28-0.66,0.41-1.14,0.41c-0.51,0-0.9-0.14-1.17-0.41
					c-0.28-0.28-0.41-0.68-0.41-1.21v-8.9c0-1.47-0.25-2.55-0.76-3.24c-0.51-0.69-1.36-1.04-2.55-1.04c-1.31,0-2.35,0.45-3.12,1.36
					c-0.77,0.91-1.16,2.16-1.16,3.74v8.08c0,0.53-0.13,0.93-0.4,1.21c-0.26,0.28-0.65,0.41-1.16,0.41c-0.51,0-0.9-0.14-1.17-0.41
					c-0.28-0.28-0.41-0.68-0.41-1.21v-8.9c0-1.47-0.25-2.55-0.76-3.24c-0.51-0.69-1.36-1.04-2.55-1.04c-1.31,0-2.35,0.45-3.12,1.36
					c-0.77,0.91-1.16,2.16-1.16,3.74v8.08C1353.31,1783.3,1352.78,1783.84,1351.72,1783.84z"/>
			</g>
			<g>
				<path class="st4" d="M1221.19,1783.67c-2.37,0-4.18-0.65-5.44-1.95c-1.26-1.3-1.89-3.17-1.89-5.62v-70.29
					c0-2.44,0.63-4.3,1.89-5.56c1.26-1.26,3.08-1.89,5.44-1.89c2.37,0,4.2,0.63,5.5,1.89c1.3,1.26,1.95,3.12,1.95,5.56v30.65h-1.66
					c1.73-4.18,4.44-7.35,8.11-9.53c3.67-2.17,7.83-3.25,12.48-3.25c4.65,0,8.48,0.87,11.48,2.6c3,1.74,5.25,4.36,6.74,7.87
					c1.5,3.51,2.25,7.95,2.25,13.31v28.64c0,2.45-0.63,4.32-1.89,5.62c-1.26,1.3-3.08,1.95-5.44,1.95c-2.37,0-4.2-0.65-5.5-1.95
					c-1.3-1.3-1.95-3.17-1.95-5.62v-27.93c0-4.5-0.85-7.77-2.54-9.82c-1.7-2.05-4.32-3.08-7.87-3.08c-4.34,0-7.79,1.36-10.35,4.08
					c-2.56,2.72-3.85,6.33-3.85,10.83v25.91C1228.65,1781.15,1226.16,1783.67,1221.19,1783.67z"/>
				<path class="st4" d="M1290.41,1783.55c-2.37,0-4.18-0.71-5.44-2.13c-1.26-1.42-1.89-3.39-1.89-5.92v-43.43
					c0-2.6,0.63-4.59,1.89-5.98c1.26-1.38,3.08-2.07,5.44-2.07c2.37,0,4.2,0.69,5.5,2.07c1.3,1.38,1.95,3.37,1.95,5.98v43.43
					c0,2.53-0.63,4.5-1.89,5.92C1294.71,1782.84,1292.86,1783.55,1290.41,1783.55z"/>
				<path class="st2" d="M1295.98,1716.46c-0.79,1.11-1.74,1.74-2.84,1.89c-1.11,0.16-2.17-0.04-3.19-0.59
					c-1.03-0.55-1.76-1.34-2.19-2.37c-0.43-1.02-0.34-2.17,0.3-3.43l5.05-11.71c0.71-1.5,1.66-2.46,2.84-2.9
					c1.18-0.43,2.41-0.49,3.67-0.18c1.26,0.32,2.35,0.91,3.25,1.78c0.91,0.87,1.46,1.91,1.66,3.14c0.2,1.22-0.14,2.47-1.01,3.73
					L1295.98,1716.46z"/>
				<path class="st2" d="M1200.15,1770.42h-0.74c-0.32,0-0.58-0.26-0.58-0.58v-22.14c0-5.52-0.91-10.04-2.72-13.55
					c-1.82-3.51-4.56-6.13-8.22-7.87c-3.67-1.73-8.34-2.6-14.02-2.6c-2.76,0-5.82,0.32-9.17,0.95c-3.35,0.63-6.84,1.7-10.47,3.2
					c-1.5,0.55-2.56,1.4-3.19,2.54c-0.63,1.14-0.95,2.31-0.95,3.49c0,1.18,0.31,2.27,0.95,3.25c0.63,0.99,1.52,1.64,2.66,1.95
					c1.14,0.32,2.46,0.12,3.96-0.59c2.92-1.34,5.7-2.29,8.34-2.84c2.64-0.55,5.11-0.83,7.4-0.83c4.1,0,7.02,0.87,8.76,2.6
					c1.73,1.74,2.6,4.58,2.6,8.52v1.9c0,0.32-0.26,0.58-0.58,0.58h-3.56c-8.36,0-15.03,0.55-20,1.66c-4.97,1.11-8.56,2.9-10.77,5.38
					c-2.21,2.48-3.31,5.86-3.31,10.12c0,3.47,0.93,6.59,2.78,9.35c1.85,2.76,4.42,4.95,7.69,6.57c3.27,1.62,7,2.43,11.18,2.43
					c3.15,0,5.96-0.55,8.4-1.66c2.44-1.1,4.48-2.66,6.09-4.67c0.45-0.56,0.86-1.16,1.23-1.78c0.3-0.51,1.08-0.29,1.08,0.3l0,0v0.75
					c0,3.9,3.16,7.06,7.06,7.06h8.09c3.73,0,6.76-3.03,6.76-6.76l0,0C1206.88,1773.43,1203.87,1770.42,1200.15,1770.42z
					 M1182.97,1766.87c-1.18,2.13-2.78,3.81-4.79,5.03c-2.01,1.22-4.32,1.83-6.92,1.83c-3.24,0-5.76-0.83-7.57-2.49
					c-1.82-1.66-2.72-3.79-2.72-6.39c0-2.05,0.61-3.65,1.83-4.79c1.22-1.14,3.29-1.95,6.21-2.43c2.92-0.47,6.82-0.71,11.72-0.71
					h3.44c0.32,0,0.58,0.26,0.58,0.58v2.02C1184.75,1762.3,1184.15,1764.74,1182.97,1766.87z"/>
			</g>
		</g>
	</g>
</g>
</svg>
